<svg xmlns="http://www.w3.org/2000/svg" viewBox="0 0 768.63 443.75">
<title>poster</title>
<g id="1efc9dce-36ca-4cd2-84ba-e8acfabdc09b" data-name="map">
<g id="52f7fc5a-c3c2-4299-a023-3529a1f686dc" data-name="Canada">
<path id="d6ce0554-7760-4ff3-826f-daa10e2ed218" data-name="CA-NB" d="M616.35,425.66a6.23,6.23,0,0,1-3.73-2.69,3.25,3.25,0,0,0-1.91-1.18c-2.28-.36-5.87-6.32-5.91-9.78a2.37,2.37,0,0,0-1.27-2.36,15.7,15.7,0,0,0-6.95-2.28H594.8l-.22-2.23a8.31,8.31,0,0,1,0-2.5,14.27,14.27,0,0,1,3.67-.3c4.13,0,6.42-.51,8.76-1.84a21.74,21.74,0,0,1,5.9-1.71c3.88-.68,4.32-.69,6.27-.17s2.14.52,3.2-.21c2.28-1.55,8.84-2.79,8.79-1.66a3.31,3.31,0,0,1-.82,1.34c-1.19,1.32-1.07,4.36.21,5.39a5.4,5.4,0,0,1,1.45,2,7.51,7.51,0,0,0,3,2.77c2.5,1.52,2.74,1.59,6,1.59a20.83,20.83,0,0,1,3.75.2c.18.12-.94,1-2.48,2.05a20.16,20.16,0,0,0-4.22,3.76c-2,2.68-9,7.19-11.19,7.19a2.33,2.33,0,0,0-2.31,1C623.57,425.53,619.9,426.24,616.35,425.66Z" transform="translate(-22.38 -30.29)" style="fill:#d3d3d3"/>
<g id="2710dc4a-f255-47af-93b2-6142a64506f1" data-name="CA-NS">
<path id="6477dcb2-2f9f-4860-bb6f-66466e8d4adb" data-name="path2185" d="M635.48,437.23c-3.28-.45-4.87-1.63-6.2-4.59-.65-1.44-.76-2.28-.37-2.92.82-1.38,4.54-4.87,7-6.55,1.2-.83,2.52-1.82,2.93-2.19a4.87,4.87,0,0,1,2.17-.91c1.59-.25,6.47-2.34,6.47-2.77s-2.52.25-5.51,1.36c-5.19,1.92-4.46-1.2,1.24-5.32,2.51-1.81,3.1-2.06,4.83-2,5.34.11,11.35-.5,13.31-1.34a5.4,5.4,0,0,1,2.89-.61,22.1,22.1,0,0,0,3.51.31c3,.07,5.3.89,6.24,2.2.59.84.39,1.06-3,3.19-2,1.27-4,2.55-4.45,2.87a39.33,39.33,0,0,1-8.09,3.91,6.44,6.44,0,0,0-2.9,2c-1.51,1.64-1.78,1.77-3.39,1.62-1.46-.14-1.87,0-2.39.71a3.35,3.35,0,0,0-.63,1.24,17.1,17.1,0,0,1-1.69,2.95,15.91,15.91,0,0,1-5.36,5c-2,1.31-3.72,2.37-3.78,2.34S637,437.43,635.48,437.23Z" transform="translate(-22.38 -30.29)" style="fill:#d3d3d3"/>
<path id="32c6ef91-f474-4827-adbb-f1ef138c8e91" data-name="path2177" d="M673.26,410.12c-.47-.24-2.08-1.27-3.58-2.3-2-1.37-2.57-2-2.15-2.32a22.31,22.31,0,0,0,2.31-3.76c1.93-3.68,3.75-6.15,4.53-6.15,1,0,2.27,1.6,2.28,2.85,0,2,.54,2.78,2.15,3,2,.3,4.57,1.91,4.57,2.8a6.22,6.22,0,0,1-1.74,2.43c-1.26,1.25-2.1,1.73-3,1.73a3.94,3.94,0,0,0-2.5,1.07C674.75,410.7,674.5,410.75,673.26,410.12Z" transform="translate(-22.38 -30.29)" style="fill:#d3d3d3"/>
</g>
<path id="11723fcf-2039-4463-8827-2d83bae09e50" data-name="CA-PE" d="M656.25,409.63a38.87,38.87,0,0,0-5-.32,61.51,61.51,0,0,1-7.76-.7,37.9,37.9,0,0,0-5.61-.86c-2.29-.09-2.53-.62-1.14-2.5.73-1,1.66-1.81,2.06-1.81a11.91,11.91,0,0,1,3.28,1.55c2,1.25,2.66,1.46,3.17,1.07a8.07,8.07,0,0,1,3.39-.48,16.84,16.84,0,0,0,3.72-.32c1.8-.6,6.82-1.42,7.08-1.15s-.09.71-.52,1.24a5.36,5.36,0,0,0-.92,2.55C657.93,409.31,657.06,410.15,656.25,409.63Z" transform="translate(-22.38 -30.29)" style="fill:#d3d3d3"/>
</g>
<g id="cf72a759-129d-417c-a5e2-886ee3947c5c" data-name="CA-AB Label" style="isolation:isolate">
<text transform="translate(143.15 325.89) scale(1.57 1)" style="isolation:isolate;font-size:12.845990180969238px;font-family:ArialMT, Arial">AB</text>
</g>
<g id="f7758f8e-4acf-465d-bc22-71de756c4cc6" data-name="CA-BC Label" style="isolation:isolate">
<text transform="translate(60.96 323.39) scale(1.57 1)" style="isolation:isolate;font-size:12.845990180969238px;font-family:ArialMT, Arial">BC</text>
</g>
<g id="00140cc7-38a3-43c6-9d26-a78b2c24b3e0" data-name="CA-MB Label" style="isolation:isolate">
<text transform="translate(283.1 324.33) scale(1.57 1)" style="isolation:isolate;font-size:12.845990180969238px;font-family:ArialMT, Arial">MB</text>
</g>
<g id="ac7b9f08-d0c9-41a3-9d9e-6ed43c63d710" data-name="CA-NL Label" style="isolation:isolate">
<text transform="translate(597.11 317.13) scale(1.57 1)" style="isolation:isolate;font-size:12.845990180969238px;font-family:ArialMT, Arial">N<tspan x="9.28" y="0" style="letter-spacing:-0.03712222438088823em">L</tspan></text>
</g>
<g id="1cbcabbe-e3c8-4c65-90da-cb4f99d4066d" data-name="CA-NT Label" style="isolation:isolate"><text transform="translate(167.26 215.83) scale(1.57 1)" style="isolation:isolate;font-size:12.845990180969238px;font-family:ArialMT, Arial">N<tspan x="9.28" y="0" style="letter-spacing:-0.018077749893817968em">T</tspan></text></g><g id="532b16a1-34ea-4552-854c-6ac49f53444b" data-name="CA-NU Label" style="isolation:isolate"><text transform="translate(325.46 214.89) scale(1.57 1)" style="isolation:isolate;font-size:12.845990180969238px;font-family:ArialMT, Arial">NU</text></g><g id="b84c84eb-56ca-40dc-9e04-3598379c9acf" data-name="CA-ON Label" style="isolation:isolate"><text transform="translate(408.99 372.47) scale(1.57 1)" style="isolation:isolate;font-size:12.845990180969238px;font-family:ArialMT, Arial">ON</text></g><g id="64f1538f-fad7-4d40-a9bc-73d2031a4730" data-name="CA-QC Label" style="isolation:isolate"><text transform="translate(493.57 375.92) scale(1.57 1)" style="isolation:isolate;font-size:12.845990180969238px;font-family:ArialMT, Arial">QC</text></g><g id="69ce9b88-efa1-4900-b47e-8ffd0e5e5165" data-name="CA-SK Label" style="isolation:isolate"><text transform="translate(205.11 354.97) scale(1.57 1)" style="isolation:isolate;font-size:12.845990180969238px;font-family:ArialMT, Arial">SK</text></g><g id="796ea38c-4eda-45b1-a048-648f28720b2b" data-name="CA-YT Label" style="isolation:isolate"><text transform="translate(43.89 182.68) scale(1.57 1)" style="isolation:isolate;font-size:12.845990180969238px;font-family:ArialMT, Arial">Y<tspan x="8.57" y="0" style="letter-spacing:-0.018077749893817968em">T</tspan></text></g><line x1="501.68" y1="265.37" x2="456.44" y2="293.81" style="fill:#d3d3d3"/></g><g id="96d0c454-3bae-4bf7-8a5f-3e1b8464407d" data-name="quebec"><g id="cd4102a0-3ae1-4ff5-918e-cda7eab469a1" data-name="quc_map"><path id="7c185ea4-f921-417c-8af5-f60b4f704da1" data-name="path2183" d="M543,436a5.16,5.16,0,0,1-1.14-2.23c-.21-1.18-.35-1.25-2.53-1.35a20.08,20.08,0,0,0-8.65,2.11c-1.13.51-2.49.67-5.68.67-4.16,0-4.2,0-5.53-1.25a4.55,4.55,0,0,0-2.39-1.24,17.1,17.1,0,0,1-3.9-1.12,18.52,18.52,0,0,0-6-1.28,42.06,42.06,0,0,1-13.24-2.78,9,9,0,0,1-4.62-3.67,12.12,12.12,0,0,1-2.06-4.72c-.2-1.27-.47-2.8-.59-3.39s-.5-2.59-.84-4.46-.73-4-.86-4.64-.37-2-.54-2.85-1.06-5.78-2-10.88-1.82-9.7-2-10.21c-.27-.82-.09-1,1.45-1.16s1.73-.31,1.38-1.32,0-1.42,1.17-2.58a5,5,0,0,0,1.54-2.39,13.13,13.13,0,0,0-2.28-3.93,31.44,31.44,0,0,1-2.88-4.46,7.82,7.82,0,0,0-1.56-2.3,2.93,2.93,0,0,1-.82-2.59,4.84,4.84,0,0,0-3.35-4.59,1.5,1.5,0,0,1-1.09-1.33,3,3,0,0,0-1.11-1.86,3.52,3.52,0,0,1-1.11-1.25c0-.53,2.72-2.08,5.89-3.32a22.68,22.68,0,0,0,4.58-2.46c1-.74,2.9-2.14,4.28-3.1a17.26,17.26,0,0,0,4.56-4.94c1.87-2.9,2.05-3.48,2-6.22-.08-2.21-3.36-9.29-3.54-9.81-.59-1.65-5.6-5.08-9.22-6.3-4.33-1.47-7.67-3.59-7.84-5a4.45,4.45,0,0,1,.82-2.44,10.32,10.32,0,0,0,1.09-1.93,2.92,2.92,0,0,1,1.31-1.12c.87-.45,1.15-1,1.15-2.3a2.61,2.61,0,0,1,1.1-2.45c1-.69,1-.85.3-2.22A15.25,15.25,0,0,1,477.2,297a11.69,11.69,0,0,0-3.48-4.35c-1.15-1-1.27-1.47-1.28-5.12,0-2.92-.22-4.22-.78-4.64a17,17,0,0,1-2.37-3l-1.6-2.44,1.45-1.88c1.37-1.78,1.57-1.88,4.09-2.1a35.64,35.64,0,0,1,10.23.28c3.21.72,7.69,1,9.49.53a15.88,15.88,0,0,0,3.77-1.78,10.17,10.17,0,0,1,2.83-1.39c1,0,11.83,3.64,15.43,5.16,2.74,1.16,3.36,1.6,3.27,2.32a2.66,2.66,0,0,0,.85,1.8c.85.82,1.54,1,6.71,1.36,3.16.24,7,.69,8.48,1l2.72.56-.38,2c-.38,1.9,0,3.13,2.63,7.78a4.54,4.54,0,0,1,.55,2.05,2.39,2.39,0,0,0,1.36,1.88,11.08,11.08,0,0,1,2.53,2.5l1.11,1.6,2.76-.21c2.67-.21,2.88-.16,5.74,1.4a20.25,20.25,0,0,0,4.5,1.86c.85.13,1.54.38,1.54.56,0,.66,1.18.26,3.57-1.2,1.84-1.13,2.57-1.89,2.85-3a2.26,2.26,0,0,1,1.64-1.83,3.62,3.62,0,0,0,2-1.92c.88-1.76.78-5.47-.16-6.55-.35-.39-.56-.87-.47-1.06s.42-1.23.73-2.31c.52-1.77,1.84-3,2.79-2.67a3.07,3.07,0,0,1,.74,1.48c.48,1.66,2.9,4.38,3.9,4.38.68,0,2.28,3.57,2,4.46s.15,1.11,3.25,1l3.22-.15-.08,2.27a10.77,10.77,0,0,1-.69,3.47,1.69,1.69,0,0,0-.06,1.84c.65.77,3.65,2,5.72,2.31,1.89.3,2,.62,2.42,4.81a21.81,21.81,0,0,0,1.08,5.16,25.87,25.87,0,0,1,1.11,3.07,3.38,3.38,0,0,0,2.07,2.09c1.68.79,4.41,3.92,4.42,5.06,0,.31.48.84,1.05,1.17a7.82,7.82,0,0,1,2,2c1,1.33.94,1.43-.2,3.06l-1.17,1.69-3-.19c-1.62-.11-3.72-.3-4.67-.43-1.52-.21-1.87-.09-3.09,1-1.5,1.4-2.45,1.57-3.94.72a17.69,17.69,0,0,0-4.4-1c-3.74-.49-4.11-.39-4.75,1.32a2.81,2.81,0,0,1-1.76,1.39c-1.07.31-1.39.67-1.39,1.6s-.5,1.53-1.74,2.35c-1.52,1-1.7,1.33-1.43,2.6a6.76,6.76,0,0,0,1.08,2.38,17.94,17.94,0,0,0,6.93,4.42c2.43.75,2.83,1.61,1.72,3.65-.6,1.12-.54,1.26,1,2.09s3.58,1,6.84.3c1.07-.22,1.22-.08,1.57,1.6a3.93,3.93,0,0,0,1.79,2.74c1.29.82,1.69.88,4.51.65,2.55-.2,3.29-.13,4.2.39a6.65,6.65,0,0,0,2.06.75c2.61.3,8.35.4,9,.14a2.59,2.59,0,0,0,1-1.85c.32-2,.73-4.4.78-4.53a14.73,14.73,0,0,1,2.36.66,10.55,10.55,0,0,0,4.63.55c2.43-.2,11.42-2.15,20.83-4.5q21.64-5.42,26.61-6.22a25.59,25.59,0,0,0,4.38-1,1.22,1.22,0,0,1,1.2-.08,36.59,36.59,0,0,1,4,3.47,23.82,23.82,0,0,1-3.51,1.9c-5.15,2.5-8.22,4.71-8.56,6.19a19.53,19.53,0,0,1-2.82,4.46c-1.38,1.77-2.74,3.61-3,4.1-.63,1.11-9.71,4.21-15.49,5.29l-10.66,2c-21.7,4-32.19,6.5-34.15,8.17a6.49,6.49,0,0,0-1.55,2.63,33.88,33.88,0,0,1-1.67,4.15c-1,2.09-1.34,2.41-2.5,2.41-2.67,0-8.17,4-10.11,7.31a21.49,21.49,0,0,1-2.83,3.58,8.59,8.59,0,0,0-2.05,3c-.63,3-9.24,11.86-13.72,14.13-6.3,3.2-14.95,9.06-14.14,9.57a38.49,38.49,0,0,0,5-3.22,74.85,74.85,0,0,1,8.46-5.12,42.09,42.09,0,0,0,9.87-6.63c2.28-2.13,6.37-7.28,6.37-8a2.92,2.92,0,0,1,.64-1.53,54.22,54.22,0,0,1,8.34-6.54l4.75-2.77a51.92,51.92,0,0,1,6.17-2.95c1.86-.72,5.28-2.14,7.6-3.16a30.62,30.62,0,0,1,7.87-2.42c3.45-.54,3.87-.54,7,.07,2.7.53,3.47.87,4.29,1.86,2.23,2.7,1.88,4.53-1.34,7s-4.27,2.88-7.56,3.09c-6.44.42-11.8,1.38-13.55,2.42-2.28,1.36-4.15,1.77-8.59,1.87-5.31.13-5.63.37-5.19,3.95l.36,2.92-2.16.22a21.71,21.71,0,0,1-3.66.05,2.62,2.62,0,0,0-2.39.63c-1.1,1-3.49,5.94-3.93,8.12-.17.89-.56,2.65-.86,3.93s-.65,3-.79,3.85a8,8,0,0,1-4.33,6.11,15.06,15.06,0,0,0-3.31,2.09,5.52,5.52,0,0,1-2.45,1.31L559,435.71c-5,.7-10.43,1.27-12.08,1.27C544.19,437,543.78,436.88,543,436Z" transform="translate(-22.38 -30.29)" style="fill:#d3d3d3"/><path id="55bcc4e6-bc13-454e-b0d6-01a798859c87" data-name="path2161" d="M634.56,381.39a11.41,11.41,0,0,1-2.81-.76,23.8,23.8,0,0,0-4.61-1.06q-6-.82-2.33-2.74c1.28-.67,2.34-.85,5.25-.89,7.67-.12,10.43.09,15.57,1.19s5.19,1.12,5.19,2.27c0,1.36-.2,1.42-6.45,1.75C637.57,381.51,636.08,381.55,634.56,381.39Z" transform="translate(-22.38 -30.29)" style="fill:#d3d3d3"/></g><circle cx="505.1" cy="382.16" r="20.88" style="fill:#31aa24"/><circle cx="496.31" cy="340.61" r="23.4" style="fill:#ffe31a"/><circle cx="529.57" cy="320.14" r="19.08" style="fill:#726e57"/><circle cx="498.05" cy="290.82" r="27" style="fill:#c42514"/><circle cx="529.88" cy="352.64" r="10.8" style="fill:#4fa5e0"/><circle cx="520.52" cy="362" r="6.48" style="fill:#e889c4"/><circle cx="535.22" cy="370.69" r="5.76" style="fill:#f99d0b"/><circle cx="555.28" cy="349.96" r="4.32" style="fill:#f70df7"/><text transform="translate(497.83 347.24)" style="font-size:12px;font-family:HoboStd, Hobo Std">Quebec</text></g><g id="f22d4313-d849-49d7-8f9a-39b09231b9de" data-name="ontrio"><path id="7de8e889-d593-46f8-ae9f-4c8ef1b65266" data-name="CA-ON" d="M459.16,473c.59-.73,1.37-1.05,2.93-1.22a15,15,0,0,0,2.85-.52c1.05-.43,1.59-2.92.71-3.26-.49-.19-.54-.48-.16-1a6.85,6.85,0,0,0,.93-2,3,3,0,0,1,1.4-1.79c2-.9,3.78-3,3.59-4.24-.1-.67-.22-2.51-.26-4.11-.09-2.71,0-3,1.92-5.19l2-2.29-1-1.41a8.28,8.28,0,0,0-2.2-2.09c-1.17-.67-1.63-1.64-.77-1.64a23.68,23.68,0,0,1,3.71,2.13,24.57,24.57,0,0,0,9,3.71c3.08.54,4.77-2.74,2.5-4.83a72.74,72.74,0,0,0-9.17-6.33,20.65,20.65,0,0,0-4.77-.78c-2-.15-5.09-.52-6.78-.83a69.08,69.08,0,0,0-11.33-.57c-7.71,0-8.32,0-9.07-.73a15,15,0,0,0-3.78-1.71c-2.4-.79-3-1.15-3-1.93a3.82,3.82,0,0,0-1.68-2c-1.39-.92-1.49-1.1-.69-1.3q1.88-.45-.21-2.31a17.86,17.86,0,0,1-2.24-2.59c-1-1.38-1.36-1.6-3.25-1.8a40.36,40.36,0,0,1-9.57-2.9,2.76,2.76,0,0,1-.91-1.84,10.05,10.05,0,0,0-.58-2.4l-.42-1-4.53.18c-4.2.18-4.77.12-7.78-.85l-3.25-1-2.31.93c-2.11.84-2.24,1-1.43,1.49s.54.7-2.88,2.12a40.31,40.31,0,0,0-5.79,2.94c-2.27,1.54-2.55,1.56-10.6.72-2.31-.24-6-.48-8.18-.51-3.77-.07-7.53-.91-7.53-1.69,0-.16-.65-.28-1.44-.28a7.86,7.86,0,0,1-3.51-1.25c-2.05-1.23-2.11-1.24-7.22-1.25-3.71,0-5.37-.14-5.95-.51a9.6,9.6,0,0,0-3-.76c-3.09-.35-3.41-.62-3.84-3.11-.35-2-.53-2.27-2.17-2.79s-1.78-.66-1.72-2.68c.06-2.28.73-11.85,1.06-15.31.12-1.17.37-4.69.57-7.81.45-7.12-.52-6,12.86-14.84,2.82-1.87,6.76-4.58,8.76-6l4.2-3c.32-.21,3.61-2.64,7.3-5.39s8-5.88,9.52-7c7.56-5.32,10.95-7.73,12-8.55l1.12-.89,1.87.67c2.29.83,6.08,3.08,6.08,3.61,0,.22.83.91,1.84,1.53a11.69,11.69,0,0,0,5.19,1.55,12.7,12.7,0,0,1,5,1.42,10.21,10.21,0,0,0,5.63,1.36A14.57,14.57,0,0,1,423,347l3.06,1.73,10.52.22c9.16.2,10.81.32,12.83,1l2.32.75-.38,3.09a8.82,8.82,0,0,1-.86,3.4c-.27.18,0,.8.58,1.42a6.72,6.72,0,0,1,1.4,2.72c.61,2.86.71,3.15,1.24,3.82a4,4,0,0,1,.34,2.3c-.15,1.32.14,2,1.49,3.31,2.17,2.17,8.91,7.36,9.57,7.36,1.29,0,4.87,2.94,5.88,4.83l1.08,2,3.47-.17,3.47-.16.36,1.82c.56,2.89.79,4.18,1.12,6.29.17,1.08.42,2.36.55,2.85s.4,1.86.58,3,.43,2.54.55,3c.27,1.17.8,4,1.16,6.24.16,1,.4,2.35.53,3,.84,4.29,1.39,7.22,1.69,9.05a13.44,13.44,0,0,0,2,4.5c1.42,2,2.19,2.63,4.94,3.86a42.51,42.51,0,0,0,13.78,3.11,18.11,18.11,0,0,1,5.94,1.27,14.63,14.63,0,0,0,3.65,1,5.3,5.3,0,0,1,2.61,1.39l1.54,1.38,4.84-.17c4.2-.15,5.32-.34,8.39-1.41,3.55-1.24,6.39-1.81,6.47-1.29a8.51,8.51,0,0,0,.78,2.2c.3.6-.08,1-1.76,1.91a68.91,68.91,0,0,0-10.57,7.13,26.6,26.6,0,0,1-4.49,3.12c-1,0-3.19,1.39-2.87,1.72.65.67-3.85,1.76-7.58,1.83-6.69.13-16.34,2.65-18.4,4.81s-2,2.67.1,3.23a9.23,9.23,0,0,0,3,.33c.82-.14,1.31.12,2,1.06,1.09,1.45.72,1.66-3.05,1.66-2.28,0-8.41,1.47-10,2.39-.74.44-.67.58.55,1.17l1.39.66-1.54.25a15.83,15.83,0,0,1-4-.15c-5.32-.85-6.58-.48-13.21,3.94-3.63,2.41-4.47,2.8-6.17,2.83-1.08,0-2.78.08-3.78.15l-1.81.12Z" transform="translate(-22.38 -30.29)" style="fill:#d3d3d3"/><circle cx="441.42" cy="384.12" r="21.96" style="fill:#31aa24"/><circle cx="351.48" cy="364.8" r="22.32" style="fill:#ffe31a"/><circle cx="378.63" cy="335.63" r="20.16" style="fill:#726e57"/><circle cx="404.32" cy="369.68" r="25.92" style="fill:#c42514"/><circle cx="419.65" cy="335.63" r="12.6" style="fill:#4fa5e0"/><circle cx="436.88" cy="352.86" r="5.76" style="fill:#e889c4"/><circle cx="474.62" cy="417.67" r="5.4" style="fill:#f99d0b"/><circle cx="458.21" cy="409.47" r="5.4" style="fill:#f70df7"/><text transform="translate(388.47 370.91)" style="font-size:12px;font-family:HoboStd, Hobo Std">Ontario</text></g><g id="1b6beb09-f5e5-4df2-ba71-7f52a2b0579d" data-name="manitoba"><path id="f4662c71-2830-4500-a12f-33d6a49f0951" data-name="mb_map" d="M292.9,300.62l-.41,2.25c-.22,1.24-.48,2.51-.56,2.8s-.33,1.42-.56,2.5-.48,2.2-.56,2.5-.59,2.6-1.12,5.14c-.92,4.34-.92,4.67,0,5.64s.92,1.05-.63,2.3c-.88.7-1.88,1.54-2.23,1.86s-.82,2.67-1,5.22-.47,5.28-.57,6.06-.34,2.88-.54,4.64-.46,4.18-.6,5.35c-.56,4.9-.81,6.93-1.12,9.64-.18,1.57-.43,3.66-.56,4.64s-.39,3.39-.58,5.35-.43,4.21-.54,5-.36,3.11-.56,5.17-.46,4.31-.56,5-.37,3.09-.58,5.35-.46,4.34-.55,4.64a114.66,114.66,0,0,0-1.08,11.42l0,2.32,3.37.21c5.4.35,10.55.71,12.06.86.78.07,2.8.22,4.49.34,3.28.23,5.14.37,10.11.75,1.69.13,5.48.34,8.41.47s7.9.27,11,.33l5.68.11.35-1.71c.18-.95.46-3.65.63-6s.41-5.41.54-6.78.38-4.91.56-7.85c.63-10.2.81-11.26,2.14-12.68a99.18,99.18,0,0,1,8.86-6.46c4.19-2.82,8.74-5.92,10.1-6.9l3-2.19c5.4-3.87,8-5.76,10.9-8,1.93-1.47,5.25-3.9,7.39-5.4s4.75-3.35,5.8-4.11,3.19-2.27,4.76-3.35a12.53,12.53,0,0,0,2.85-2.34c0-.4-2.93-1.17-5.47-1.44-3.88-.41-4.95-.64-5.59-1.23s-1.44-.62-4.11-.58a11.75,11.75,0,0,0-3.78.45c-.46.44-6.95,1-8.21.65-.58-.14-.69-.43-.39-.95.44-.75.34-1.19-1.24-6a46.21,46.21,0,0,1-1.83-6.42c-.45-2.25-1.88-2.94-7.75-3.72-3.75-.51-5-.83-5.52-1.41-.7-.82-.69-3.64,0-7.45l.46-2.41-3,0c-1.64,0-3.17-.08-3.4-.11s-2.32-.19-4.63-.35-4.59-.33-5.05-.38-2.6-.21-4.74-.35-4.41-.32-5.05-.38-2.67-.22-4.52-.34l-7.86-.53c-2.47-.18-6-.42-7.86-.53s-4.55-.3-6-.41Zm16,61.33a5.51,5.51,0,0,1,4.7,2,9,9,0,0,0,1.58,1.65c1,.46,3.62,4.8,3.14,5.29-.3.32.71,2.28,1.81,3.54a4.53,4.53,0,0,1,.58,2.68c-.12,2,1.73,6.35,3.5,8.28.72.78,1,2,1.16,4.47.17,3.35.14,3.39-1.19,3.52a5.07,5.07,0,0,0-2.4,1,2.61,2.61,0,0,1-3.41.34c-1-.61-.66-3.16.49-4.29a4.67,4.67,0,0,0,1-1.74,3.42,3.42,0,0,1,1-1.55c1.12-.86,1.08-1.7-.1-2.17-.93-.37-1.2-.33-1.79.27-.77.78-2.12,1-2.12.29a5.14,5.14,0,0,1,.64-1.55c1.52-2.65-.95-5-4.47-4.17-1.44.32-1.84.26-2.79-.4a8,8,0,0,1-2-2.45,11.33,11.33,0,0,0-2.26-2.86c-1-.82-1.32-1.48-1.14-2.24.22-1,0-1.15-2.49-2-3.65-1.21-5.13-.86-5.25,1.24,0,.8-.16,2.26-.26,3.24-.5,4.9-.5,4.91,1.79,6.07,4.92,2.48,5.31,2.8,6.1,5a12.81,12.81,0,0,1,.76,3.43A6.5,6.5,0,0,0,307,392c1.88,2.35,2,4.18.19,4.48s-2.55.28-3-.18-1.93-4.94-3-8.83c-.62-2.2-1.43-2.88-5.35-4.49-3.11-1.28-4.61-2.28-4.45-3,0-.24.13-.76.17-1.14a1.92,1.92,0,0,1,.84-1.17c.5-.32.75-1.32.74-2.85,0-2.36,0-2.36-2.16-3.12-2.4-.86-3.28-1.67-3.28-3,0-.73.28-.91,1.39-.91,2.08,0,2.78-1.14,1.4-2.25-.61-.5-1.1-1.08-1.1-1.3,0-.47,2.63-1.2,4.15-1.16,1.35,0,4.26,1.8,4.26,2.57,0,.32.59.93,1.3,1.36l1.28.77.76-1.3c1.25-2.2,3.53-4,5.36-4.3A17.09,17.09,0,0,1,308.94,362Z" transform="translate(-22.38 -30.29)" style="fill:#d3d3d3"/><circle cx="318.15" cy="314.92" r="20.16" style="fill:#31aa24"/><circle cx="277.56" cy="335" r="21.6" style="fill:#ffe31a"/><circle cx="287.45" cy="361.82" r="19.08" style="fill:#726e57"/><circle cx="289.09" cy="297.62" r="25.2" style="fill:#c42514"/><circle cx="301.95" cy="329.4" r="9" style="fill:#4fa5e0"/><circle cx="319.62" cy="295.76" r="5.76" style="fill:#e889c4"/><circle cx="309.62" cy="350.53" r="5.4" style="fill:#f70df7"/><circle cx="312.03" cy="337.32" r="5.4" style="fill:#f99d0b"/><text transform="translate(287.04 316.2)" style="font-size:12px;font-family:HoboStd, Hobo Std">Manitoba</text></g><g id="c9fd895c-94cc-4318-ab1a-fbbe47f1715e" data-name="ontario_map"><path id="50ee80ea-fadb-475e-af25-e4c723d72c69" data-name="sk_map" d="M274.21,405.09a47.16,47.16,0,0,0-4.73-.38c-2.47-.13-5.12-.3-5.89-.37s-3-.24-5-.36-4.28-.29-5.05-.36-3.05-.23-5.05-.36-9.84-1.12-17.4-2.2L216.45,399c-2.55-.35-4-.56-7.3-1.05-2-.3-4.15-.6-4.77-.67s-3.08-.41-5.49-.76c-3.55-.52-4.31-.75-4.08-1.22s4.68-12.08,5.08-13.26c.09-.29,1-2.62,1.94-5.17s2.66-7.05,3.76-10,3.26-8.65,4.8-12.67,2.89-7.64,3-8,1-2.71,1.91-5.17,2.84-7.51,4.24-11.24L224,318,228,307.57l2.05-5.41,2.91.15c1.59.08,4.14.27,5.66.42a53.51,53.51,0,0,0,7.11-.06c4.11-.31,4.55-.28,7.77.64s4.53,1,4.53.22c0-.4-11.93-4.09-14.87-4.6a26,26,0,0,0-3.51-.39,5.44,5.44,0,0,1-2.39-.72,5.18,5.18,0,0,0-4.52-.34c-1.28.43-1.31.32-.48-2.15.48-1.43.82-1.78,1.55-1.65s4.79.67,8.54,1.12l2.49.31c1.87.25,25.15,3.13,26.66,3.3.77.09,4.43.54,8.13,1s7.75.91,9,1c2.17.13,2.25.18,2.16,1.36,0,.67-.73,4.19-1.52,7.83s-1.61,7.4-1.8,8.38c-.35,1.75-1,2.68-2,2.68s-4.22,2.37-4.95,3.49a2,2,0,0,0-.14,2.28c1.25,2.52,1,3.75-.89,5-1.24.82-1.64,1.33-1.3,1.68s.83.32,2.27-.45a8.07,8.07,0,0,1,2.61-.95c.84,0,.83,1.12-.08,8.21-.14,1.08-.4,3.4-.57,5.17s-.43,3.93-.56,4.82-.38,3.21-.57,5.17-.43,4.13-.55,4.82-.38,3-.57,5.17-.44,4.33-.55,4.82-.37,2.82-.58,5.17-.46,4.53-.54,4.82-.33,2.54-.56,5-.48,4.7-.56,5-.34,2.55-.56,5-.49,4.74-.6,5.09a20.91,20.91,0,0,0-.3,2.95C275.77,405,275.23,405.69,274.21,405.09Z" transform="translate(-22.38 -30.29)" style="fill:#d3d3d3"/><circle cx="235.53" cy="354.88" r="21.96" style="fill:#31aa24"/><circle cx="225.8" cy="283.53" r="22.32" style="fill:#ffe31a"/><circle cx="236.53" cy="298.95" r="19.8" style="fill:#726e57"/><circle cx="210.67" cy="335.42" r="25.92" style="fill:#c42514"/><circle cx="246.35" cy="322.45" r="11.88" style="fill:#4fa5e0"/><circle cx="204.18" cy="304.07" r="5.76" style="fill:#e889c4"/><circle cx="189.01" cy="361.47" r="6.12" style="fill:#f99d0b"/><circle cx="256.08" cy="278.12" r="5.94" style="fill:#f70df7"/><text transform="translate(180.68 359.55)" style="font-size:12px;font-family:HoboStd, Hobo Std">Saskatchewan</text></g><g id="371da101-3589-4b26-afe9-55c60e5c344c" data-name="arbeta"><path id="635bb746-4c14-44b6-a3f7-a0d1967994c3" data-name="arb_map" d="M184.18,394.17c-30-5-26.8-4.27-28.59-6.8l-1.5-2.13,1.22-3.94c1.28-4.16,1.21-5.21-.5-7.38l-3.64-4.62a45.21,45.21,0,0,1-3.78-5.53,18,18,0,0,0-2.81-3.82,8.41,8.41,0,0,1-2-2.86,5.89,5.89,0,0,0-2-2.46c-.89-.64-1.61-1.34-1.61-1.55a4,4,0,0,0-1.16-1.42,7.25,7.25,0,0,1-1.7-3.44,7.29,7.29,0,0,0-1.89-3.65,12.61,12.61,0,0,1-1.93-2.22,6.18,6.18,0,0,0-2.55-1.79c-2-.8-2.67-2.11-1.43-2.6.31-.12.56-1.11.56-2.2,0-1.94,3.68-8.66,28.72-52.42l2.26-4L172.31,282c6.84,1.44,17.23,3.52,23.09,4.61l23,4.28c6.77,1.26,12.37,2.33,12.44,2.37.37.24-1.67,5.48-2.22,5.71a11.12,11.12,0,0,1-2,.5c-1.41.24-7.3,3.94-7.33,4.61,0,.21.89.65,2,1,1.93.58,2.06.58,3.61-.13a4.78,4.78,0,0,0,2-1.46c.2-.4.48-.65.62-.56a34.88,34.88,0,0,1-1.95,6c-2.87,7.58-6,15.8-10.2,27.07-1.87,5-4,10.71-4.76,12.67-3.75,9.89-7.09,18.73-8.89,23.55-9.52,25.42-8.72,23.39-9.25,23.32C192.21,395.51,188.5,394.9,184.18,394.17Z" transform="translate(-22.38 -30.29)" style="fill:#d3d3d3"/><circle cx="163.1" cy="325.69" r="21.96" style="fill:#31aa24"/><circle cx="130.68" cy="307.12" r="21.6" style="fill:#ffe31a"/><circle cx="180.4" cy="293.26" r="20.16" style="fill:#726e57"/><circle cx="151.21" cy="275.96" r="28.08" style="fill:#c42514"/><circle cx="143.64" cy="346.23" r="12.6" style="fill:#4fa5e0"/><circle cx="185.45" cy="265.15" r="5.76" style="fill:#e889c4"/><circle cx="197.73" cy="269.91" r="5.4" style="fill:#f99d0b"/><circle cx="160.94" cy="357.04" r="5.4" style="fill:#f70df7"/><text transform="translate(133.77 308.11)" style="font-size:12px;font-family:HoboStd, Hobo Std">Albe<tspan x="24.19" y="0" style="letter-spacing:0.032999674479166664em">r</tspan><tspan x="29.7" y="0">ta</tspan></text></g><g id="e9968cee-aba2-477a-8681-1664af97cb98" data-name="british colunmbia"><g id="ceb2505a-35e2-497d-bbcd-eaea5587cde2" data-name="bc_map"><path id="3b2da357-2384-4739-8b16-5fa83a788cfb" data-name="path2159" d="M64.92,375.52c-3.58-1.45-9-5.94-9-7.47,0-.85-.33-1.15-1.64-1.46-1.67-.4-2.95-1.79-3.68-4A7.62,7.62,0,0,0,49,360.27a18.19,18.19,0,0,1-2.25-2.86,32.92,32.92,0,0,0-3.26-4,13.89,13.89,0,0,1-3-4.64A18.17,18.17,0,0,0,39,345.36c-.72-1.12-.68-1.21.92-2a7.75,7.75,0,0,1,2.75-.88c1.11,0,4.46,2,9.87,6,1.69,1.25,3.34,2.45,3.65,2.67s1.45,1.11,2.51,2,2.09,1.69,2.27,1.78c.78.44,2.21,3.59,2.56,5.67s.74,2.57,3.17,4.61c3.24,2.72,3.51,3.12,4.05,5.91a14.07,14.07,0,0,0,1.15,3.45c.42.74.61,1.45.42,1.56C71.52,376.65,66.78,376.27,64.92,375.52Z" transform="translate(-22.38 -30.29)" style="fill:#d3d3d3"/>
<path id="48d2f78e-3491-4181-89a1-b3cb8e31bf5a" data-name="path2165" d="M153.87,389l-21-4.16c-3.1-.62-35.89-8.43-49.39-11.77-2.31-.58-5-1.22-5.89-1.44-2.14-.5-2.51-.86-2.52-2.51a2,2,0,0,0-1.18-2c-3.27-1.72-4.44-2.58-4.44-3.26,0-.41-.22-.75-.48-.75-1.36,0-3.32-1.9-3.67-3.55-.56-2.67-2.43-5-5.74-7.12-3-1.91-3-1.95-2.67-3.66.27-1.4.17-1.73-.52-1.73a1.52,1.52,0,0,1-1-.28,14.89,14.89,0,0,0-2.85-1.26c-1.47-.54-2.69-1.18-2.71-1.42a7.7,7.7,0,0,0-.28-1.14c-.31-1-.34-1.6-.25-5.43.07-3.19.12-3.31,1.78-4.19s1.65-1,1.09-2a6.16,6.16,0,0,1-.62-2.52c0-1.07-.54-1.91-2.26-3.46-1.9-1.73-2.22-2.26-1.95-3.27a3.31,3.31,0,0,1,1.47-1.83c1.27-.68,1.15-1.24-.79-3.67-1-1.22-1.13-2.09-1.12-6.05,0-4.47.07-4.65,1.45-5.53a18.2,18.2,0,0,1,4.41-1.62c4-1,7.21-2.8,7.21-4.16s1.21-3.1,3.3-4.56c1.56-1.09,1.75-1.46,1.75-3.42s-.16-2.28-1.67-3.14C61.33,287,58,282.94,57,280.61c-.54-1.38-.42-2.13.89-5.61s1.43-4.25.9-6a33.63,33.63,0,0,1-.93-5.41,32.66,32.66,0,0,0-.57-4.14c-.13-.41-.39-1.37-.56-2.14s-1.07-3.4-2-5.85-1.79-4.82-2-5.26-1-1-2.34-1.35c-3.93-1-4.45-1-5.53.13-.73.79-1.92,1.29-4.41,1.86-1.87.43-4.4,1.09-5.62,1.45s-2.27.67-2.34.67a3.12,3.12,0,0,1,.37-1.16c.76-1.78.26-6.08-.83-7.13s-1-4.44.2-4.27c.41.06,6.08,2.32,12.6,5,17.77,7.39,37.2,14.91,46.65,18,4.63,1.54,8.67,2.91,9,3,1.53.69,18.84,6.26,25.25,8.14,4,1.17,12.73,3.46,19.37,5.08s12.26,3.06,12.51,3.2.19.63-.12,1.1-3.25,5.6-6.52,11.39-6.93,12.21-8.12,14.27c-13,22.5-15.71,27.59-15.71,29.38a4,4,0,0,1-.84,2.62c-1.22,1.11-.52,2.65,1.57,3.51,2.62,1.06,6,5.07,6.41,7.56a6.6,6.6,0,0,0,1.93,3.65,7.62,7.62,0,0,1,1.59,1.95c0,.2.59.77,1.32,1.27a7,7,0,0,1,2,2.61,4.76,4.76,0,0,0,1.22,1.9c.71.28,3,3.35,3.51,4.61a55.46,55.46,0,0,0,4.39,6.21c2.31,3,4,5.61,4,6.25a25.28,25.28,0,0,1-1,4.44c-1,3.45-.86,4.93.63,6.39C154.89,388.86,154.85,389.15,153.87,389Z" transform="translate(-22.38 -30.29)" style="fill:#d3d3d3"/>
<path id="ccdbd5dd-dddc-4866-992a-758a98598099" data-name="path2153" d="M25.21,321.63c-2.28-3.35-3.12-7.34-2.75-13.05.22-3.33.59-5.32,1.05-5.67a1.86,1.86,0,0,0,.72-1.12c0-.93,2.44-.9,4.68.07,2.69,1.15,6.27,3.42,6.27,4,0,.24-2.27,1.94-5.05,3.78-5.9,3.9-6,4.11-3.66,9.45a22.82,22.82,0,0,1,1.41,3.84C27.89,324.13,26.45,323.46,25.21,321.63Z" transform="translate(-22.38 -30.29)" style="fill:#d3d3d3"/>
</g>
<circle cx="102.23" cy="267.7" r="21.96" style="fill:#31aa24"/>
<circle cx="61.17" cy="271.98" r="22.32" style="fill:#ffe31a"/>
<circle cx="91.8" cy="326.59" r="20.16" style="fill:#726e57"/>
<circle cx="48.46" cy="317.22" r="26.46" style="fill:#c42514"/>
<circle cx="81.08" cy="294.39" r="11.34" style="fill:#4fa5e0"/>
<circle cx="49.28" cy="238.18" r="5.76" style="fill:#e889c4"/>
<circle cx="60.69" cy="234.86" r="5.4" style="fill:#f99d0b"/>
<circle cx="73.74" cy="247.09" r="5.94" style="fill:#f70df7"/>
<text transform="translate(19.95 283.63)" style="font-size:12px;font-family:HoboStd, Hobo Std">British Colunmbia</text>
</g>
<g id="2b2506af-723f-4b3a-9267-de6de820d66a" data-name="Northwest Territories"><g id="c24fd6ec-fccf-4ac7-b459-1fbba4bdc3c1" data-name="CA-NT">
<path id="16e9ddb4-1133-49cd-b647-47211ff80944" data-name="path2147" d="M135.11,160.89c-1,0-2.32.09-4.28.25-3,.24-5.81.51-6.23.62s-.67.66-.47,1.9c.32,2-.39,2.54-1.72,1.25a3.38,3.38,0,0,0-1.31-.9c-.94,0-9.1,9.39-10.7,12.31a25.37,25.37,0,0,1-2.58,4c-1.29,1.26-1,1.61,2.72,3.21,7.86,3.4,8.07,3.74,4.84,7.95a13.74,13.74,0,0,0-2.33,4.17c-.26,1.4-.12,1.58,1.91,2.61,1.2.62,2.07,1.24,1.93,1.39a7.31,7.31,0,0,0-.41,2.33c-.14,2.2-.8,2.93-3.07,3.29-1.58.25-2.47,1.12-2.47,2.43,0,.5-.23.91-.51.91s-.65.42-.86.94c-.27.68-.06,1.15.78,1.72a2.56,2.56,0,0,1,1.15,2.36,6.43,6.43,0,0,0,1.35,3.34c.93,1.22,1.26,2.14,1.06,2.94a2.91,2.91,0,0,0,.86,2.57c1.13,1.39,1.13,1.44.14,3.53a40,40,0,0,0-3.07,10.61,17.45,17.45,0,0,1-.63,3.23c-.22.46.1,1,.87,1.6,1.49,1.09,2.4,2.45,3.33,5a9.57,9.57,0,0,0,3.55,4.9l1.15.81-1.21.82a2.55,2.55,0,0,0-1.22,2.16,3.66,3.66,0,0,1-.6,2c-.53.64-.23.81,3,1.73,1.94.57,4.51,1.45,5.7,2a6.63,6.63,0,0,0,4.07.7c2.27-.27,2.11-.64,2.15,5.15l0,4.4,6.17,1.59c20,5.14,43.68,10.27,66.5,14.4,6.64,1.21,15.73,2.89,20.21,3.75s8.89,1.66,9.82,1.76l10.1,1.27c4.63.6,9.12,1.17,10,1.26l7.3.91c3.16.4,6.51.8,7.43.9s5.22.65,9.54,1.21c8.86,1.13,12,1.3,12.1.63a8.65,8.65,0,0,1,.25-1.11c.11-.37.36-2.06.56-3.75s.47-3.48.58-4,.35-1.94.53-3.21c.51-3.64,1.39-9.46,1.7-11.24.1-.59.35-2.52.56-4.28a29.88,29.88,0,0,1,.58-3.75,31.79,31.79,0,0,0,.54-3.57c.19-1.67.59-4.36.9-6a8.88,8.88,0,0,0,.24-3.28c-.17-.17-3.9-1.5-8.29-3-9.3-3.1-18.84-6.31-25.93-8.72l-5-1.71-3.46-3.57-3.45-3.56-6.35-.86-6.35-.87-5.44-4.66c-3-2.57-7.71-6.68-10.48-9.14s-8.27-7.24-12.19-10.65-7.52-6.57-8-7c-.81-.79-.74-1.07,1.1-4.16,6.93-11.64,6.91-11.58,3.42-14.49a9.67,9.67,0,0,1-1.93-1.9c0-.17-.27-.3-.61-.3a8,8,0,0,1-2.1-.67,13.42,13.42,0,0,0-3.74-.84,6.66,6.66,0,0,0-4.56,1c-2,1-2.52,1.14-3.79.83-1.87-.45-1.84-.72.2-2,.91-.56,1.49-1.19,1.28-1.4a4.75,4.75,0,0,1-.41-2.25c0-3.09-.78-3.09-5.66,0-2.37,1.5-4.42,2.73-4.56,2.73a5.27,5.27,0,0,1-2.21-1.5c0-.16-.1-2.35-.14-4.87-.07-4.54-.09-4.58-1.51-5a5.2,5.2,0,0,0-4.61.32,8,8,0,0,1-4.14.65c-1.82,0-2.53-.2-2.21-.46a3.23,3.23,0,0,0,.75-1.39c.26-.89,0-1.08-2.31-1.83a24.4,24.4,0,0,0-10.17-.45c-.78.12-4.06.31-7.3.43-4.29.16-6,.36-6.33.74a3.66,3.66,0,0,1-2.12.51c-1.58,0-1.64-.08-1.65-1.52C137.31,161.48,137.2,160.91,135.11,160.89Zm46.49,50c14.6,0,15.77.16,15.77,1.65,0,.35-1.2,1.27-2.67,2.06-1.77,1-2.48,1.56-2.1,1.8.66.42,8.4,2.41,12.24,3.14,2.64.51,2.69.55,2.31,1.66s-1.21,2-2,2a14.05,14.05,0,0,0-2.7.93l-2.21.92-3.25-1c-1.79-.52-3.73-1.12-4.31-1.31-1.41-.48-2.21.11-3.4,2.45s-1.35,2.35-5.77,3.29c-1.92.41-3.75.75-4.07.75-1.06,0-.6-1,1-2.22,3.28-2.47,3.24-2.42,1.35-2.42a8,8,0,0,0-3.4.91c-2.77,1.48-4.87,1.7-7.4.77a7.21,7.21,0,0,1-2.79-1.68c-.6-.83-.39-1,3.31-3.29a36.93,36.93,0,0,1,6.46-3.16,5.76,5.76,0,0,0,2.75-1.4c.42-1-1.82-2.14-4.4-2.18a36.37,36.37,0,0,1-5.81-.8c-2.95-.63-3.64-.93-3.8-1.64a1,1,0,0,1,.4-1.1C167.41,211,174,210.88,181.6,210.9Zm19.08,45.88a8.88,8.88,0,0,1,2.28,1.64,27.84,27.84,0,0,0,3.83,2.77,29.73,29.73,0,0,1,6.62,4.78c1.11,1.17,1.71,1.39,5,1.92a14.94,14.94,0,0,0,7,0,10.41,10.41,0,0,0,4.51-1.58c1.7-1.38,3.81-2,7.35-2.11,3-.11,3-.1,2.93.88-.16,1.43-2.38,3-4.81,3.47a16.14,16.14,0,0,0-4.49,1.85,30.33,30.33,0,0,1-6,2.51c-2,.58-4.61,1.38-5.79,1.77a9.6,9.6,0,0,1-3.56.55,5,5,0,0,0-3.19.81,19.59,19.59,0,0,1-4,1.56,14.9,14.9,0,0,1-3.65.51c-10.36-.59-11.33-.82-16.29-3.75-4.46-2.64-4.42-3.31.25-3.31a18.74,18.74,0,0,1,4.22.37c1.28.43,2.81,0,5.18-1.39a5.68,5.68,0,0,1,3.8-.81c2.58.12,3.9-.4,3.9-1.54s-2.29-5.25-4.32-7.9C199.94,257.79,199.67,256.78,200.68,256.78Z" transform="translate(-22.38 -30.29)" style="fill:#d3d3d3"/><path id="2fd6b031-895f-47fa-9fd4-1c848eba8bd9" data-name="path2113" d="M260.5,188.27c-4-.75-10.32-1.93-14-2.64s-8.75-1.64-11.22-2.08c-4.22-.76-4.37-.82-2.53-1,1.08-.11,4.75-.13,8.14,0,5,.12,6.66.31,8.74,1,2.58.83,9.43,2.11,9.85,1.85a14.84,14.84,0,0,0-3.13-2.18c-3.51-2.12-6.22-3.07-8.85-3.08a112.14,112.14,0,0,1-14.4-2.39c-2.61-.67-2.8-.81-3.78-2.81a13.92,13.92,0,0,1-1-2.54c0-.39,2.62-1,10.1-2.28l2.52-.44-2-.28c-1.08-.16-2.68-.33-3.56-.38-1.71-.1-3.52-1.71-3-2.64.16-.27,0-.61-.39-.77a6.87,6.87,0,0,1-1.7-1.28c-1.33-1.32-.84-2.63,1.57-4.26,2.23-1.5,3.11-2.46,3.11-3.39,0-1.81,8.32-4.7,16.64-5.76,3-.4,6.7-.81,8.12-.93,2.5-.21,2.62-.18,3.18.84.7,1.27.08,3.32-1.63,5.41-.66.8-1,1.55-.86,1.67a8.06,8.06,0,0,0,2.88-1.12l2.55-1.32,3.5,1.27a48.94,48.94,0,0,1,4.86,2l1.36.74-1.14,1.71-1.14,1.72,2.31-.33a13.61,13.61,0,0,0,2.68-.57c.2-.14,0-.95-.46-1.8a4.1,4.1,0,0,1-.66-1.63c2.38-1,3.25-1.23,3.47-1s-11.89,31.56-12.45,31.89A55.48,55.48,0,0,1,260.5,188.27Z" transform="translate(-22.38 -30.29)" style="fill:#d3d3d3"/>
<path id="bc9e8e03-fd09-47ee-b13c-247428975378" data-name="path2105" d="M205,165a26.62,26.62,0,0,1-.82-3.56c-.51-2.81-.84-3.37-3.68-6.38a23.11,23.11,0,0,1-3.1-3.71c0-.55,1.68-1.76,3.36-2.43a21.6,21.6,0,0,0,4.48-3.73,44.49,44.49,0,0,1,4.14-3.87c.58-.39,2.92-2.29,5.2-4.22,3.95-3.35,4.14-3.59,4.2-5.53a17.39,17.39,0,0,0,0-2.51c-.13-.64,1.59-1.82,2.41-1.65.36.07,1.58.2,2.73.29a36.79,36.79,0,0,1,5,.9c1.63.42,4,.92,5.32,1.12,1.91.3,2.46.58,3,1.53a14.15,14.15,0,0,0,3.64,3.09c3,1.94,3,1.95,6.3,1.9,4.58-.08,5.2.35,7.81,5.45,3.32,6.48,2.88,7.14-5.62,8.45-3.9.6-7.78,1.67-8.75,2.42a10,10,0,0,1-2,.66,14.23,14.23,0,0,0-3.09,1.23c-.76.43-3.08,1.59-5.15,2.57-3,1.42-4.18,2.27-5.78,4.19a11,11,0,0,1-3.24,2.82,3.71,3.71,0,0,1-1.23.32c0-.1-.68,0-4.77.55-.78.11-3.36.28-5.75.39C206.22,165.47,205.18,165.4,205,165Z" transform="translate(-22.38 -30.29)" style="fill:#d3d3d3"/>
<path id="60b7c92d-825f-43ca-a3e0-4aed5ad58b65" data-name="path2095" d="M270.11,138.29c-1.42-1-2.59-2.1-2.59-2.46,0-.88,2.21-1.73,5.74-2.2,5.68-.75,7.35-1.92,2.74-1.92-1.87,0-2.6-.18-3.42-.88-1-.85-1.09-.86-2.14-.25a9.83,9.83,0,0,1-6.13.47c-1.63-.58-6.85-4.53-7.25-5.51s1.08-2.21,2.41-2.21c.41,0,.77-.12.8-.27a3.4,3.4,0,0,1,1.88-2.56c.79-.53,1.44-1.27,1.44-1.66,0-1,3.2-3.36,4.47-3.36a3.28,3.28,0,0,0,1.93-.89c.77-.75,1.36-.9,3.64-.9,3.6,0,5.67,1,5.67,2.7,0,1,.36,1.37,2.15,2.12,2.87,1.21,4.21,3,4.31,5.85.1,2.5.92,3.25,3.61,3.26s2.82.25,1,5.08c-1.27,3.32-2,4.55-2.58,4.55a18.76,18.76,0,0,0-4,1.42c-3,1.34-3.46,1.43-7.11,1.43h-3.91Z" transform="translate(-22.38 -30.29)" style="fill:#d3d3d3"/>
<path id="020836b6-4163-4263-aea4-3b0bf53d160d" data-name="path2085" d="M252.8,122.37a2.6,2.6,0,0,1-1.54-1.47c-.78-1.78.39-2.74,4.71-3.85,3.75-1,5-1.06,5.79-.41,1,.82.53,1.75-1.43,2.71-1.07.52-2.85,1.47-3.95,2.11a10.21,10.21,0,0,1-2.31,1.11Z" transform="translate(-22.38 -30.29)" style="fill:#d3d3d3"/><path id="4324148d-490a-4345-b527-d63464e5c70f" data-name="path2083" d="M247.64,116.34a1.94,1.94,0,0,1-.89-1.42c0-.81-.19-.87-3.08-.87-5,0-6.6-1.56-4.07-3.94a6.45,6.45,0,0,1,3.79-1.6,34.88,34.88,0,0,0,5.23-1.37,10.35,10.35,0,0,1,3.17-.77c.26.11,2.29-.9,4.51-2.22,5.16-3.07,6-3.35,10.26-3.29,1.91,0,4.12,0,4.89-.11,1.66-.19,4.21.55,4.7,1.36,1.08,1.79-.1,3.77-2.8,4.74-.61.21-1,1-1.21,2.15-.25,1.71-.43,1.88-2.72,2.73a10.38,10.38,0,0,0-3,1.59,3.51,3.51,0,0,1-3.69.72c-1.24-.66-1-3.08.31-3.82.62-.33,1.12-.73,1.12-.88,0-.44-2.06.71-7.63,4.26C251.12,117.05,249.52,117.54,247.64,116.34Z" transform="translate(-22.38 -30.29)" style="fill:#d3d3d3"/>
<path id="4549eac8-3af8-4d50-b4d8-6897d7699994" data-name="path2075" d="M291.28,106.57a4.91,4.91,0,0,1-3.45-2.51,8.85,8.85,0,0,1-1.23-2.36c0-.27-.52-.69-1.15-.94-3-1.17-4.31-4.55-1.73-4.55,1.15,0,2.88,1.06,2.88,1.76,0,.34.5.39,1.82.2a107.39,107.39,0,0,1,13.05-.4c.58.14.62.52.18,1.72-.3.84-.65,1.86-.77,2.25-.84,2.71-1.6,4.12-2.5,4.64C296.9,107.23,293.88,107.31,291.28,106.57Z" transform="translate(-22.38 -30.29)" style="fill:#d3d3d3"/>
<path id="22fe5cbc-248e-4341-b988-3a0eaecc23ef" data-name="path2067" d="M301.19,96.25c0-.17-.74-.51-1.64-.74a9.94,9.94,0,0,1-2.63-1.13,3.17,3.17,0,0,0-2.52-.48,3.16,3.16,0,0,1-1.88-.16c-.86-.88,3.37-3.24,4.81-2.68a2,2,0,0,0,1.37-.22c.71-.37,5-.32,5.56.08s-1.72,5.65-2.35,5.65C301.51,96.57,301.19,96.43,301.19,96.25Z" transform="translate(-22.38 -30.29)" style="fill:#d3d3d3"/>
</g>
<circle cx="179.07" cy="205.73" r="15.84" style="fill:#31aa24"/>
<circle cx="147.1" cy="162.95" r="21.6" style="fill:#ffe31a"/>
<circle cx="194.42" cy="229.16" r="10.8" style="fill:#726e57"/>
<circle cx="130.72" cy="204.99" r="25.2" style="fill:#c42514"/>
<circle cx="160.99" cy="225.08" r="6.84" style="fill:#4fa5e0"/>
<circle cx="227.03" cy="234.05" r="2.88" style="fill:#e889c4"/>
<circle cx="120.19" cy="171.5" r="5.4" style="fill:#f99d0b"/>
<circle cx="213.17" cy="208.77" r="5.4" style="fill:#f70df7"/>
<text transform="translate(106.71 215.05)" style="font-size:12px;font-family:HoboStd, Hobo Std">No<tspan x="15.04" y="0" style="letter-spacing:0.032999674479166664em">r</tspan>
<tspan x="20.54" y="0" style="letter-spacing:-0.000040690104166666664em">thwest </tspan>
<tspan x="60.43" y="0" style="letter-spacing:-0.09000651041666667em">T</tspan>
<tspan x="66.86" y="0" style="letter-spacing:0.000040690104166666664em">e</tspan>
<tspan x="73.16" y="0" style="letter-spacing:0.0360107421875em">r</tspan>
<tspan x="78.71" y="0">ritories</tspan></text></g><g id="dc47d8a9-95fa-4d18-badb-0f3c72e15185" data-name="Newfoundland and Labrador"><g id="26363fd1-6411-4922-bd21-931cceb89042" data-name="new_map">
<path id="b729e49b-7399-471e-85cb-7b4cd2bbf01c" data-name="path2163" d="M679,386.47c-1.55-1.26-1.51-2.78.12-4.19s1.92-3.33.38-3.64-1.43-1,.06-2.57c1.07-1.09,1.16-1.55.83-4.32a62.58,62.58,0,0,1,.51-16.66c.06-.39.3-2,.54-3.56.5-3.29,1.53-4.49,5.56-6.45,2.21-1.07,2.79-1.21,3.5-.84,2.11,1.11,2.54,2.38,2.29,6.73a20.29,20.29,0,0,1-.56,4.54,8.56,8.56,0,0,0-.67,2.45l-.36,2.13,1.42-1.07A6,6,0,0,0,694,357.7c0-.53,2.37-.67,4.22-.24,2.09.48,2.14.54,2,2.36l-.1,1.16h2.82a9.66,9.66,0,0,0,3.12-.31,11.58,11.58,0,0,1,3-.78c1.48-.26,4-.84,5.49-1.29a12.55,12.55,0,0,1,7.64-.08,2.11,2.11,0,0,1,.92,3.18c-.57.58-.5.82.43,1.41s1.51.67,4,.42c3.58-.36,4.18-.22,4.18,1,0,1-1.16,2.3-3,3.35-.61.34-.81.62-.46.62s.65.54.65,1.22a4.33,4.33,0,0,0,.34,1.79c.4.65,1.35.76,1.35.15s2.78-2.8,3.65-2.8c.44,0,1.09.64,1.46,1.43.77,1.62,1.53,1.75,3.88.65a3.6,3.6,0,0,1,2.08-.51,5.59,5.59,0,0,1,.56,2.65c.07,1.31.17,3,.22,3.71.14,1.92-2.14,4-4.49,4.13-1.41.07-1.9-.1-2.41-.81-.81-1.13-1.2-1.13-2.15,0-1.53,1.81-2.78.69-3.44-3.09-.49-2.77-1.12-3.87-2.24-3.87-.27,0-.49.59-.49,1.31,0,1.05-.43,1.56-2.21,2.64-2,1.2-2.26,1.58-2.77,3.93-.76,3.45-2.1,4.37-6.51,4.44-3.79.06-4.08-.51-1.14-2.28,1.6-1,2-1.44,2-2.59,0-1.33-.07-1.38-1.21-1-2.12.73-4.57,1.05-5.24.69s-1.63-.08-7.27,2.07a25.48,25.48,0,0,1-4.65,1.34l-3.48.36c-1.06.12-4.47.86-7.58,1.65l-6.28,1.6A3,3,0,0,1,679,386.47Z" transform="translate(-22.38 -30.29)" style="fill:#d3d3d3"/>
<path id="8585e839-191d-4f74-8c95-8c52de2e7d45" data-name="path2155" d="M609.19,360.8a20.13,20.13,0,0,0-2.31-.28,9.72,9.72,0,0,1-3.22-.8c-.86-.5-1.75-.59-4.32-.45-4.1.23-4.53.12-4.93-1.26a20.76,20.76,0,0,1-.79-3c0-.23-.43-.67-.9-1-.78-.49-1-.48-2.67.15a10.29,10.29,0,0,1-3,.7c-1.42,0-3.39-1.24-2.51-1.59.64-.25.8-2.37.26-3.63-.2-.48-1.19-1-2.65-1.35-4.14-1-8.51-5.33-7.1-7a1.91,1.91,0,0,1,1.15-.7c.58,0,1.55-1.37,1.85-2.59a2.67,2.67,0,0,1,1.36-1.29,4.76,4.76,0,0,0,1.74-1.53c.53-.9.66-.93,3-.61a17.68,17.68,0,0,1,3.82.95,4.75,4.75,0,0,0,5.34-.68c1.07-1,1.23-1.07,3.92-.83,1.54.14,3.25.24,3.8.23.8,0,1,.2.77,1.21a3.06,3.06,0,0,1-.43,1.33c-2.49,1.07-4.41,2.16-4.66,2.65a5,5,0,0,1-2,1.34c-2,.83-2.09,1.26-.59,2.13,1.34.77,4.66.5,5.76-.48a8.25,8.25,0,0,1,6.18-1.41c2.64.51,4.68-.1,5.84-1.75,1-1.39,1.11-3.23.24-3.78-.28-.18-1,0-1.67.44a6.11,6.11,0,0,1-3.09.74c-4.23,0-4.61-.71-2-3.8a7.51,7.51,0,0,0,1.68-2.82c0-1.07-1.86-3.79-3-4.4-.51-.26-.92-.74-.92-1.06,0-1-2.8-4.1-4.62-5.11a4.12,4.12,0,0,1-2.15-2.5c-.23-.85-.72-2.58-1.07-3.86a21.78,21.78,0,0,1-.69-4.64c0-2.68-1.08-4.12-3.2-4.41a17.16,17.16,0,0,1-3.28-.92c-2-.8-2.36-1.87-1-3.12.59-.54.7-1,.36-1.6-.5-.85-.48-1.18.18-3.1.43-1.23.12-1.31-5-1.17-1.22,0-2.08,0-1.91-.13a6.5,6.5,0,0,0-.65-2.77c-.75-2-1.19-2.6-2-2.68a3.2,3.2,0,0,1-1.7-.74c-.8-.81-3.11-6.16-2.76-6.38.58-.38,7.11,3.3,9.39,5.29a9.07,9.07,0,0,0,3.37,2.11,4.08,4.08,0,0,1,2.13,1,12.22,12.22,0,0,0,3.06,1.79,6.79,6.79,0,0,1,3.09,2.52c.78,1.15,1.55,1.79,2.17,1.79a4.09,4.09,0,0,1,2.19,1.2,4.91,4.91,0,0,0,3.49,1.43c2,.2,2.46.43,3.52,1.74a8.61,8.61,0,0,1,1.55,2.93c.3,1.33.48,1.44,2.91,1.88a11.75,11.75,0,0,1,3.55,1.14c.87.61.88.82.13,2.42s-.7,1.9-.07,2.63a6.17,6.17,0,0,1,1,1.75c.26.78,1.12,1.08,6.35,2.23,3.33.74,6.51,1.34,7.06,1.34a8.44,8.44,0,0,1,3.15,1.48l2.15,1.48,5,.15a48.16,48.16,0,0,1,7.12.66,5.91,5.91,0,0,0,5.26-.75c.54-.34,1.57-.28,4.78.28a22.64,22.64,0,0,1,4.44,1.05c.72.72-.21,2-1.75,2.43a19.83,19.83,0,0,0-4.57,2.58c-1.65,1.18-3.75,2.66-4.68,3.29l-4.31,2.89c-2.68,1.81-3.92,4-2.49,4.3,1.2.29,7-3.57,7.37-4.93.25-.85,1.66-2.1,4.67-4.14,3.89-2.64,4.5-2.92,6.39-2.92a3.9,3.9,0,0,1,3.36,1.18c1.08,1,1.52,1.14,2.69.93,2.64-.48,5.43-.34,6.8.34.73.37,2.85,1.2,4.7,1.85l3.53,1.25c.09,0-.14.49-.51,1-.94,1.32.16,3.47,2.58,5,1.84,1.17,4.22,3.71,4.22,4.5,0,.59-3.82,4.31-5.75,5.6l-1.7,1.14-2.29-1.85a28,28,0,0,0-2.83-2.1,6,6,0,0,0-2.54.4,39.23,39.23,0,0,1-4.94,1.08c-1.62.24-4.78.89-7,1.43l-10.25,2.49c-3.39.81-7.38,1.8-8.85,2.19-5.35,1.42-17,4-19.21,4.22a11.07,11.07,0,0,1-5.37-.72,11.34,11.34,0,0,0-3.7-.74c-.31.13-.61.88-.64,1.67-.09,1.76-.7,4.95-1,5.13A10.6,10.6,0,0,1,609.19,360.8Z" transform="translate(-22.38 -30.29)" style="fill:#d3d3d3"/>
</g>
<circle cx="614.3" cy="276.64" r="21.96" style="fill:#31aa24"/>
<circle cx="583.87" cy="260.4" r="22.32" style="fill:#ffe31a"/>
<circle cx="640.35" cy="298.25" r="20.16" style="fill:#726e57"/>
<circle cx="589.76" cy="305.24" r="26.64" style="fill:#c42514"/>
<circle cx="620.24" cy="306.28" r="12.24" style="fill:#4fa5e0"/>
<circle cx="660.66" cy="312.94" r="5.76" style="fill:#e889c4"/>
<circle cx="636.29" cy="315.31" r="5.4" style="fill:#f99d0b"/>
<circle cx="561.89" cy="309.47" r="9" style="fill:#f70df7"/>
<text transform="translate(570.99 301.18)" style="font-size:12px;font-family:HoboStd, Hobo Std">Newfoundland and Labrador</text>
</g>
<g id="e5d28b1d-9f7a-4780-91f6-e486b5f21606" data-name="Yukon">
<path id="2da75115-6096-4eab-97a8-6889fe678cc2" data-name="yukon_map" d="M128.59,270.23c-.6-.25-3-1-5.3-1.66-3.54-1-15.73-5-35.74-11.79-6.36-2.15-29.66-11.36-46.9-18.54-6.11-2.54-8.84-3.88-8.84-4.33,0-.91,1.73-2.64,3.55-3.54,3.25-1.63,1.37-2.68-5-2.81-1.26,0-1.84-.24-2-.76s-.51-.69-.77-.64c-1.05.18-3-.5-3.3-1.18-.26-.53,1.06-2,5.23-6,7.72-7.24,22-20.69,33-31.1,8.78-8.3,20.14-19,35.47-33.43l6.89-6.49,1.79.4c3.68.8,4.75,1.61,5.16,3.89a10.15,10.15,0,0,0,1.7,3.75,10.51,10.51,0,0,1,1.67,3c.27,1,1,1.71,2.66,2.62,2.09,1.14,2.21,1.3,1.45,1.88a97.29,97.29,0,0,0-8.19,8.48,25.36,25.36,0,0,0-2.1,3.39,26.29,26.29,0,0,1-2.25,3.56c-2.45,3.14-2.59,2.9,3.34,5.74,4.09,2,5.36,2.76,5.36,3.39a9.55,9.55,0,0,1-2,3.27,9.78,9.78,0,0,0-2.3,4.41c-.28,1.93-.25,2,1.75,3,2.19,1.06,2.1.77,1.48,4.92a3.77,3.77,0,0,1-1.68.47c-1.78.24-3.41,1.51-3.41,2.64a4.12,4.12,0,0,1-1.14,1.93c-1.22,1.32-1,2.51.79,3.42.64.34.81.87.61,1.89a2.29,2.29,0,0,0,1,2.53,3.94,3.94,0,0,1,1.33,3.1,6.24,6.24,0,0,0,1.06,3.19c.94,1.16.94,1.31-.16,3.75a28.62,28.62,0,0,0-2.59,9.19,14.13,14.13,0,0,1-.95,3.86c-.55,1-.46,1.23.78,2.08,1.88,1.28,2.4,2,3.5,4.71a18.61,18.61,0,0,0,2.5,4.17c1.15,1.35,1.38,1.9.86,2s-.84,1-1,1.9a15,15,0,0,1-.69,2.72c-.48,1.19.24,1.63,4.79,2.95a54.64,54.64,0,0,1,5.25,1.85,11.74,11.74,0,0,0,3.64,1l1.49,0-.15,3.73a24.92,24.92,0,0,1-.32,3.82A3.11,3.11,0,0,1,128.59,270.23Z" transform="translate(-22.38 -30.29)" style="fill:#d3d3d3"/>
<circle cx="71.59" cy="143.13" r="21.96" style="fill:#31aa24"/>
<circle cx="65.2" cy="204.57" r="20.88" style="fill:#ffe31a"/>
<circle cx="57.8" cy="170.29" r="12.6" style="fill:#726e57"/>
<circle cx="27.21" cy="185.39" r="25.2" style="fill:#c42514"/>
<circle cx="80.26" cy="182.68" r="10.08" style="fill:#4fa5e0"/>
<circle cx="98.15" cy="234.05" r="3.6" style="fill:#e889c4"/>
<circle cx="85.16" cy="225.89" r="2.52" style="fill:#f99d0b"/>
<circle cx="85.97" cy="159.03" r="5.4" style="fill:#f70df7"/>
<text transform="translate(40.29 189.48)" style="font-size:12px;font-family:HoboStd, Hobo Std">
<tspan style="letter-spacing:-0.022989908854166668em">Y</tspan><tspan x="7.45" y="0">ukon</tspan>
</text>
</g>
<g id="178a2b8d-6ece-4cf2-9df2-161b49b94258" data-name="Nunavut">
<g id="39cfa58a-abe9-48ef-a991-413d0fe5a89d" data-name="nunavut_map">
<path id="0b06cda8-2b62-4426-b7d0-ac2aaf19c5fe" data-name="path2117" d="M303.72,209a33.36,33.36,0,0,1-9.86-3.62A20.89,20.89,0,0,0,290,203.8c-1.24-.36-2.29-.87-2.33-1.13s-.1-.68-.14-.93c-.12-.79-2.46-.74-2.87.07-.52,1.06-3.36,1.87-7.25,2.08a14.28,14.28,0,0,0-4.09.64c-1.67,1.06-4.72,1.32-12.73,1.08-11.93-.36-15.47-.75-15.53-1.72,0-.25-.13-1.09-.26-1.88s-.34-2.37-.48-3.53c-.3-2.42-1.32-3.28-4.27-3.61-3.35-.37-10.11-3.39-10.11-4.51a2.12,2.12,0,0,0-.09-.57l-1.11-3.12c-.56-1.57-1-3-1-3.1s.11-.25,24.32,4.33c9.52,1.8,17.4,3.21,17.51,3.14s3-7.26,6.42-16,6.36-16.11,6.52-16.4,1.29,1.07,2.52,3c2.17,3.47,2.23,3.66,2,7-.28,4.08.34,5.17,2.26,4,1-.62,1.11-1.1.95-3.36-.1-1.45-.29-4.63-.44-7.06l-.26-4.43,1.78-1.18c1.67-1.11,1.93-1.16,4-.86a8.84,8.84,0,0,1,3.54,1.32c1.3,1,1.31,1,.45.07a8.58,8.58,0,0,1-1.37-2c-.69-1.52,1.1-2.8,4.44-3.21a9.07,9.07,0,0,1,7.54,2.22c2.11,1.76,1.57,3.25-2.29,6.29l-3.08,2.42.13,4.47c.15,5,.67,7.95,1.77,10,.69,1.3.64,1.57-.6,3.32-1,1.38-1.26,2.26-1,3.19.5,2,4,4.9,9.17,7.64,5.94,3.15,8,5.56,6.81,7.81-.59,1.06-.62,1.07-3.76.84a16.45,16.45,0,0,1-3.69-.54,2.77,2.77,0,0,0-1.21-.33c-1.47,0-1.23,1.18.63,3,3.09,3.07,2.47,5-2.06,6.35A14.61,14.61,0,0,1,303.72,209Z" transform="translate(-22.38 -30.29)" style="fill:#d3d3d3"/>
<path id="1c0a334b-2d85-494a-b5db-e6352fea0075" data-name="path2157" d="M460.08,370.7c-2.88-.74-3.43-1-3.43-1.74,0-1,.3-1.08,4.17-1.34,2.58-.18,2.88-.12,4.37.95,2.07,1.46,2,2.88-.2,2.95A24.49,24.49,0,0,1,460.08,370.7Z" transform="translate(-22.38 -30.29)" style="fill:#d3d3d3"/>
<path id="48e892b1-a9ee-4ee1-90fd-5094da0897c3" data-name="path2151" d="M342.67,303c-.12-.07-2.25-.25-4.72-.39s-4.61-.3-4.77-.35-2.3-.22-4.77-.36-4.61-.3-4.77-.35-1.92-.21-3.93-.34l-6.17-.41c-5.28-.38-7.2-.5-13.47-.89-6.52-.41-7.5-.54-7.08-1a19,19,0,0,0,.63-3.63c.22-1.86.47-3.63.55-3.92s.33-1.9.53-3.57.47-3.44.6-3.93.38-2,.55-3.39c.38-3,.79-5.84,1.15-8,.15-.88.38-2.4.52-3.39.91-6.42,1.14-7.93,1.73-11.41.2-1.18.4-2.51.45-3,.07-.68-.68-1.08-4.4-2.34l-24.41-8.2c-3.55-1.19-7.47-2.51-8.7-2.94-2.17-.75-3.33-1.68-7.64-6.11l-2-2.08-6.41-.86-6.41-.85-3.12-2.71c-1.72-1.49-8.26-7.21-14.55-12.7s-12.89-11.27-14.68-12.82a20.66,20.66,0,0,1-3.26-3.21c0-.35,7.25-13.07,7.61-13.35.67-.52,6.11,2.6,8.32,4.77a25.25,25.25,0,0,0,8.27,4.45,3.85,3.85,0,0,0,2.7,0c1.08-.37,1.55-.26,3.7.86a21.64,21.64,0,0,1,3.53,2.26c1.33,1.2,3.47,4.27,3.47,5,0,.91-1.44,1.46-4.49,1.71s-5.61,1-5.61,1.71a4.55,4.55,0,0,0,1.24,1.53c1,1,2.08,1.31,6.87,2.24,8.86,1.72,10.56,1.89,14.64,1.48a43.22,43.22,0,0,0,5.11-.8c1.34-.39,1.58-.35,2.39.44.49.48,2.41,2.14,4.27,3.69,4.37,3.65,5.82,5.44,5.52,6.82-.18.82-.1,1,.33.55s.45-1.92.24-4.17l-.34-3.64,5.92-1.87c3.41-1.08,6-2.14,6.18-2.49.24-.58.11-.58-2.07,0-1.27.34-3.64.84-5.26,1.1-2.75.45-3.06.43-4.49-.25-3.79-1.8-.6-5.21,5.1-5.44a38.9,38.9,0,0,0,5.05-.69,20.68,20.68,0,0,1,4.45-.48,3.64,3.64,0,0,1,3.51,3,5.14,5.14,0,0,0,1.07,2.32c1.4,1.72,5.68,4.33,7.18,4.38.7,0,1.53.07,1.84.12s.85.11,1.2.14a11.22,11.22,0,0,1,3,2.32l2.32,2.27,3.44.23c1.89.12,5.1.23,7.14.23a52,52,0,0,1,7.63.71l3.93.71s0-.58.11-1.3a7.46,7.46,0,0,1,1-2.68,5.74,5.74,0,0,0,.87-2.32c0-.9.08-.92,2.58-.7A48,48,0,0,1,344,217c1.61.51,3,1,3.12,1.05a54.29,54.29,0,0,1-3,7.22c-.12.25.37.6,1.1.77a3.74,3.74,0,0,1,2,1.51l.71,1.18.38-1.07a2.19,2.19,0,0,0-.47-2.14,6.42,6.42,0,0,1-.89-3.49c0-2.56.54-3.18,2.58-2.84s6-.95,7.76-2.51c1.43-1.23,1.71-1.8,1.71-3.48s-.26-2.17-1.13-2.67c-1.29-.74-1.56-3.32-.43-4,1-.61-2.49-2.59-5.69-3.26a7.24,7.24,0,0,1-4.35-2.45c-1.68-1.66-2-2.25-1.95-4a5.57,5.57,0,0,1,.61-2.78c.46-.55.26-1.19-.92-2.92l-1.51-2.21,1.09-2a4.86,4.86,0,0,1,3.45-2.83c2.16-.75,2.31-.89,1.75-1.66s-.34-1.06,1.29-2.34c4.39-3.45,4-3.25,6-3a3.31,3.31,0,0,1,2.53,1.2,10.09,10.09,0,0,0,2.75,2.13c3.83,2.13,4.37,2.88,4.59,6.35.19,3.05.27,3.22,3.06,6.17,3.5,3.7,3.88,5.71.95,5-1.14-.28-1.22-.21-1,.77a4.51,4.51,0,0,1-.5,2.51c-.7,1.35-.67,1.48.49,2.08s1.59.57,3.31.27c2.15-.38,4-.15,8.33,1,1.78.47,2,.63,1.32,1a10.6,10.6,0,0,1-3.31.71c-3.95.35-4.24.94-1.63,3.35,2.06,1.92,2.52,2.88,2.72,5.75.11,1.52,1,.07,1.41-2.32.64-3.71,1.4-4.84,3.63-5.44l2-.52,3.77,2.62c2.64,1.84,3.95,3.08,4.37,4.12.89,2.24.73,3.6-.53,4.4a2.45,2.45,0,0,0-1.12,1.73c0,1,1,3.3,1.66,3.62a24.78,24.78,0,0,1,2.21,2.05,9.38,9.38,0,0,0,2.24,1.87,6.14,6.14,0,0,0,3.42-2,10.59,10.59,0,0,0,.82-2.9,8.76,8.76,0,0,1,1.14-3.17,25.2,25.2,0,0,0,1.93-3.59,15.56,15.56,0,0,1,2.83-4.11c2-1.88,2.12-2.69.53-3.76-1.34-.91-3-5.19-2.41-6.35.73-1.53,1.93-2,5.09-2a16.9,16.9,0,0,1,6.17,1.07,20.49,20.49,0,0,0,4.27,1.07,7.09,7.09,0,0,1,2.91,1.21,20.56,20.56,0,0,0,4.24,2c2.36.76,4.42,2,4.46,2.63,0,.17-.39.51-.9.75-.85.39-.83.51.25,1.46a5.9,5.9,0,0,1,1.53,2.33c.34,1.2.24,1.32-1.33,1.67A5,5,0,0,0,433.1,215a2.58,2.58,0,0,1-1.73.74c-1.49,0-1.38.68.29,1.92a5.22,5.22,0,0,1,1.74,2.21,3.52,3.52,0,0,0,2.18,2c4,1.73,4,5.31,0,9.62-4.71,5.11-5,5.34-7.47,5.19a14.13,14.13,0,0,1-3.66-.76l-1.48-.62.88,1.34c1,1.49.37,2.13-1.66,1.73s-2.89-.39-3.77.1-1.17.42-2.81,0a8.13,8.13,0,0,1-2.75-1.27c-.71-.64-1.19-.72-3.08-.52a19.56,19.56,0,0,0-3.24.57c-.89.29-.79.46,1,1.55s2,1.31,1.63,2.71c-.29,1.09-1.24,2.14-3.41,3.76a15,15,0,0,0-3.36,3.15,1.32,1.32,0,0,1-1,.9c-.36,0,.07.37.95.82,1.35.68,1.57,1,1.43,2.23a4.63,4.63,0,0,1-1.07,2.3l-2,2c-.61.58-2.24,2.31-3.61,3.82-2.84,3.14-3.76,3.49-9.23,3.49-4,0-5.14.52-5.43,2.5-.18,1.23-.22,1.25-2.71,1.23-1.39,0-3.22-.13-4.06-.25-2.25-.32-2.4.27-.3,1.2l2.05.9c.58.28.65,3.11.09,4.18-.74,1.43-2.83,2.12-6.72,2.23-4.41.11-4.2,0-3.26.95.79.75.73.87-1.19,2.06a34.55,34.55,0,0,0-7.65,6.41,11.3,11.3,0,0,1-2.53,2.32c-1.48.85-2.81,2.4-2.81,3.27a22.85,22.85,0,0,1-2.9,4.53c-2.44,3.28-2.89,4.22-2.84,5.82l.06,1.9h-2.4A14.43,14.43,0,0,1,342.67,303Z" transform="translate(-22.38 -30.29)" style="fill:#d3d3d3"/>
<path id="a0d318e3-4c92-4f26-999c-b1adba9730d8" data-name="path2141" d="M456,283.3c-3-1.18-2.86-4.67.24-6.8,1.26-.87,2.69-.81,4.47.19s.91,5.14-1.39,6.5C457.89,284,457.89,284,456,283.3Z" transform="translate(-22.38 -30.29)" style="fill:#d3d3d3"/>
<path id="4944e990-b55c-458d-9510-c068ee61211d" data-name="path2139" d="M426.94,279.31c-1.31-1.55.54-5.06,3.27-6.25,2.19-.95,2.81-1,7.15-1,2.64,0,2.93.13,3.57,1.1s.53,1.22-1.07,2.82a14.33,14.33,0,0,1-9.4,3.9C428,280,427.49,280,426.94,279.31Z" transform="translate(-22.38 -30.29)" style="fill:#d3d3d3"/>
<path id="c6630c4e-c3c9-461a-b99d-b1313130cf22" data-name="path2137" d="M414.42,271.5c-.77-.11-1-.51-1-1.82a3,3,0,0,0-.67-2.12,12,12,0,0,0-3.79-.46c-6.62-.08-7.65-1-4-3.52,2.11-1.45,2.48-2.1,2.39-4.12-.33-7,0-9.24,2.19-14.69.68-1.71.9-1.87,2.71-2.09s2.13-.1,3.24.78a12.87,12.87,0,0,1,2.26,2.53c.84,1.29,1.23,1.52,2.67,1.53,1.11,0,3.31.75,6.45,2.14,2.63,1.17,6.35,2.8,8.27,3.64s3.5,1.76,3.51,2.06a5.7,5.7,0,0,0,1.4,2,5.3,5.3,0,0,1,1.4,2.05c0,.55.4.6,3,.42s3.16-.11,5,.8,2.05,1.18,1.88,2.26c-.28,1.84-.67,2.24-3,3.07-2.1.76-2.1.76-4.62.06a13.89,13.89,0,0,0-4.59-.52,4.29,4.29,0,0,1-3.27-.64c-.66-.45-1.12-1.11-1-1.45.26-.94-4.79-2.58-6-1.95a1.67,1.67,0,0,0-.85,1.27c0,1.27-1,2.69-2.69,3.75a30.25,30.25,0,0,0-2.76,2c-1.76,1.48-3.95,3-4.48,3A17.5,17.5,0,0,1,414.42,271.5Z" transform="translate(-22.38 -30.29)" style="fill:#d3d3d3"/><path id="d3f845f1-2c7d-4c9b-ba01-1c0e118cf12e" data-name="path2121" d="M340.7,215.27a23.65,23.65,0,0,1-6.68-2.81,8.17,8.17,0,0,0-2.16-1c-1.11,0-3.73-1.54-3.73-2.18,0-.9,8.9-8.53,9.94-8.53,1.41,0,6.58,3.46,8.08,5.41,2.28,3,3.87,5.75,3.87,6.81,0,.73-.54,1.2-2.16,1.88C345.64,215.8,343.76,215.9,340.7,215.27Z" transform="translate(-22.38 -30.29)" style="fill:#d3d3d3"/>
<path id="c4a89838-854b-4a16-93e1-09d6185b9994" data-name="path2133" d="M549.1,269.06c-.1-.06-3.66-.21-7.9-.33-6.08-.16-8-.34-8.9-.81l-2.95-1.57c-1.5-.8-2.23-.94-4.55-.86-3.07.11-4.9-.22-10.76-2-3.53-1-4-1.33-4.69-2.57s-.62-1.43.22-1.73c1.05-.37,1.29-1,.38-1a18.34,18.34,0,0,1-3.37-1.22,22.35,22.35,0,0,0-4.48-1.46,3.9,3.9,0,0,1-2.52-1.25c-1.24-1.52-4.11-2.64-7.28-2.85-2.36-.15-3-.05-4,.63a6.36,6.36,0,0,1-3.69.8,7.51,7.51,0,0,0-4.85,1.43l-2.4,1.42h-4.66c-7.74,0-9.48-.9-10.21-5.28-.26-1.52-.12-1.77,1.45-2.72,1.33-.81,1.73-1.36,1.73-2.4s.31-1.45,1-1.68a58.11,58.11,0,0,1,7.64-.38c6-.05,6.83-.13,8.42-.89a18.93,18.93,0,0,1,6.56-2c1,0,1.15-.14.85-.8a12.91,12.91,0,0,1-.84-2.1,10.47,10.47,0,0,0-2.36-1.19c-2.17-.91-2.29-1.05-2-2.34a6.6,6.6,0,0,1,1.11-2.38c.45-.55,2.12-2.64,3.72-4.63l2.9-3.63-1.1-2.52c-1-2.41-4.32-5.73-7.09-7.18a13.27,13.27,0,0,1-2.31-1.86,12.61,12.61,0,0,0-4.1-2.33c-2.21-.78-2.87-1.23-3.24-2.23s-.64-1.23-2.13-1.12a7.68,7.68,0,0,0-2.51.58,26,26,0,0,1-3.17,1.21c-2,.63-2.42.67-3,.23-.94-.72-.19-2,1.87-3.12,1.7-1,1.72-1,.63-1.5-1.42-.69-2.18-.69-4.27,0s-3.29.44-3.29-.85a1.34,1.34,0,0,1,1.14-1.35c1.06-.3,1-.44-1.54-2-4.56-2.82-7.15-4.12-7.88-4-.38.09-.7.71-.7,1.38v1.22l-5.75.08c-3.16,0-7.43.06-9.47,0-3.13,0-3.71,0-3.65.54s-.59.58-4.7.55c-2.62,0-7.42-.16-10.66-.31a47.91,47.91,0,0,0-7.91.08c-2.48.44-4.35-.3-5.32-2.11-.55-1-.87-1.18-2.26-1.1-6.62.36-6.95.35-8.63-.44-3.71-1.75-6.75-4.53-6.75-6.19,0-.54.55-.73,2.61-.91,1.43-.12,3.63-.22,4.89-.22,2,0,2.17-.07,1.46-.49-1.22-.73-4.32-1.3-7-1.3-1.74,0-2.49-.17-2.78-.62a12.3,12.3,0,0,1-1.66-6.07c.71-7.35.93-8.18,3.34-12.65,3.5-6.49,6.1-9.49,9.26-10.68,5-1.91,13.15-1.38,14.11.91.37.89.16,1.24-1.47,2.39a6.35,6.35,0,0,0-2.31,2.7,5.92,5.92,0,0,1-1.23,2.18c-1,1-2.44,4.71-2,5.18a9.23,9.23,0,0,1,.49,3c.19,2.93.43,3.35,1.91,3.35a1.46,1.46,0,0,0,1.41-1,4.23,4.23,0,0,1,1.3-1.62c.74-.52.78-.77.23-1.25a5.27,5.27,0,0,1-2-4.12c0-1.33.22-1.86,1.11-2.32a4.52,4.52,0,0,0,1.52-1.21,1.31,1.31,0,0,1,1-.63.66.66,0,0,0,.57-.72c0-1.28,4.28-5.14,6.61-6s7.84-1.52,9.52-1.12c1,.23,2,1.14,5.37,5.13,2.14,2.52,3.73,5.3,3.44,6-.4,1,1.67,2.72,3.31,2.71a26,26,0,0,0,3.35-.37c1.76-.31,2.07-.5,1.78-1.08-.61-1.22,2.79-3,6.79-3.51,3.16-.42,3.54-.4,5.33.29a11.59,11.59,0,0,0,3.33.76c1.75,0,4.22,1.31,4.77,2.49a3.78,3.78,0,0,0,3.12,2.14c.72,0,1.1.4,1.37,1.43.21.78.6,1.43.87,1.43a19.59,19.59,0,0,1,3.61,2c2.57,1.62,3.18,1.85,3.43,1.33.17-.34.67-1.15,1.11-1.8.88-1.29,1.41-1.3,6.28-.2,2,.46,2.56.8,3.58,2.3a6.59,6.59,0,0,0,2.76,2.35,6.3,6.3,0,0,1,2.2,1.35,3.1,3.1,0,0,0,4.19.85c1.79-.89,3.15-.73,6.43.78,2.1,1,2.36,1.24,2,2.07-1,2.47-1,2.94-.23,2.84A4.09,4.09,0,0,0,505.6,186c1.41-1.42,3.14-1.26,5.86.54s3.79,3,3.87,4c.15,2,.32,2.21,2.18,2.78a6.82,6.82,0,0,1,2.81,1.65l.87,1.07-2.56,1c-2.11.78-2.8.88-3.88.57-1.74-.5-2.12-.18-1,.87.85.82.81,2.3-.09,3.75-.49.78,1.39,1.87,4.13,2.39a25.79,25.79,0,0,1,4.34,1.36,13.61,13.61,0,0,0,4.15,1,18.36,18.36,0,0,1,3.36.43,21.62,21.62,0,0,0,4.66.22l3.25-.16,3,2c2.65,1.75,3.3,2,5.31,2l3,.09c.37,0,.85.57,1.06,1.22a3.5,3.5,0,0,0,.74,1.41,17.44,17.44,0,0,0,4.27-.62l3.89-.86,2.12.76c2,.72,2.13.89,2.29,2.64.21,2.31-.1,3.15-1.57,4.23-1.07.78-1.08.88-.2,1.49s.81.83.31,1.53a2.88,2.88,0,0,0-.3,2.11c.41,1.62-1.47,3.44-3.54,3.44-1.2,0-1.35.12-1,.8a11.35,11.35,0,0,0,3,3.66c1.17.46.5,1.2-1.74,1.9s-2.35.72-4.28.06a35.93,35.93,0,0,0-4.72-1.11,6.69,6.69,0,0,1-4.67-2.29c-2.15-2.05-6.06-4.45-7.27-4.45a3.35,3.35,0,0,1-1.54-.46c-2.27-1.41-6.08-2.27-6.08-1.38,0,.17-.66.5-1.48.73l-1.49.43,1.53,1c1.83,1.21,1.82,2.83,0,3.41-.89.28-1.07.55-.74,1.08s.45.58.47.43c.06-.44,4.1.77,4.87,1.47.39.35,1.72,1.36,3,2.25,2.21,1.57,3,1.8,8.84,2.78,1.75.29,2.41.6,2.67,1.26a2.66,2.66,0,0,0,1.47,1.26,8.47,8.47,0,0,1,2.5,1.77,43.16,43.16,0,0,0,5.34,4l4,2.57-.12,5c-.06,2.73-.29,5-.51,5.12-.62.24-10.79-1.83-16.2-3.29a42.44,42.44,0,0,1-6.54-2.25c-1.6-.88-3.19-1.06-6.54-.76-1,.09-.32.69,1.14,1.08a6,6,0,0,1,2.58,1.61c.84,1,1.79,1.39,5.31,2.24A88.21,88.21,0,0,1,550,262.34l6,2.47-.14,2.14-.14,2.14-3.2.05A25.92,25.92,0,0,1,549.1,269.06Z" transform="translate(-22.38 -30.29)" style="fill:#d3d3d3"/>
<path id="2379fe08-20bf-4d96-b06c-4c94292e7314" data-name="path2131" d="M467.45,267.73c-2.11-.9-2.76-1.84-1.8-2.58s2-.65,4,.22c1.71.78,2.14,2,.95,2.76C469.71,268.68,469.63,268.67,467.45,267.73Z" transform="translate(-22.38 -30.29)" style="fill:#d3d3d3"/>
<path id="c6c10f29-7841-49bb-892f-2a9223083c46" data-name="path2129" d="M473.59,263.67c-1-.13-1.26-.36-1.12-1.11s.52-1,1.62-1.07c1.88-.14,4.08,1,3.58,1.81C477.3,263.9,476.3,264,473.59,263.67Z" transform="translate(-22.38 -30.29)" style="fill:#d3d3d3"/>
<path id="e1e86386-cc2d-4533-863c-eeb9ae90045a" data-name="path2127" d="M464.51,224c-3.78-2.4-2.54-9.81,2-11.69a8.13,8.13,0,0,1,7.08,1c1.58,1.1,1.62,1.22,1.62,5.09,0,4.42-.24,4.74-4.58,6C467.7,225.27,466.34,225.18,464.51,224Z" transform="translate(-22.38 -30.29)" style="fill:#d3d3d3"/>
<path id="bd3b0919-ccef-4621-85ce-5aa0494584e1" data-name="path2123" d="M479.94,217.46c-1.68-.49-3.08-1.86-2.52-2.43s5.12-.5,6,.26c1.08.91.85,1.46-.84,2A4.36,4.36,0,0,1,479.94,217.46Z" transform="translate(-22.38 -30.29)" style="fill:#d3d3d3"/>
<path id="b35937a5-c717-437a-a0fc-066f971b329b" data-name="path2115" d="M446.36,208c-.59-.38-.47-.59.95-1.64a4.78,4.78,0,0,0,1.72-2.81c.36-1.75,1.66-3.52,2.57-3.52s1.11,1.13.45,1.9a3,3,0,0,0-.54,1.94C451.71,205.84,447.82,209,446.36,208Z" transform="translate(-22.38 -30.29)" style="fill:#d3d3d3"/>
<path id="92ca2962-f6ef-46d0-8812-a32357f08d75" data-name="path2111" d="M331.67,182.54c-1.44-.75-2.66-1.66-2.71-2-.5-3.85-1.4-4.82-6.49-7a12.12,12.12,0,0,1-3.56-2.9c-1.74-2.07-1.76-2.16-1-3.73a5.69,5.69,0,0,1,2.16-2.26c1.36-.65,1.39-.64,4.37.79s3,1.41,3.93.78a5.43,5.43,0,0,0,1.5-2c.5-1.14.42-1.44-.53-2.09-2.68-1.86-3.35-3-2.76-4.8.64-1.93,2.34-3.64,3.61-3.64a18.87,18.87,0,0,1,3.82,1.07c2.53.92,3,1,3.63.55,1.37-1.05,7.53-1.88,8.86-1.19.4.21.7,1.18.7,2.25,0,1.46-.22,1.94-1,2.12-.94.23-.94.27,0,.71,1.44.67,1.25,1.06-1.55,3.05a11,11,0,0,0-2.52,2.17c0,.2.76.54,1.68.74,1.3.29,1.69.59,1.7,1.32a3.32,3.32,0,0,0,.81,1.84,7.34,7.34,0,0,1,2.34,5.24c.24,2.28.12,2.71-1.13,4a11.37,11.37,0,0,1-6.2,2.92c-.52,0-.81.15-.63.33.55.56-2.33,2.37-4.43,2.78C334.41,183.9,334.16,183.85,331.67,182.54Z" transform="translate(-22.38 -30.29)" style="fill:#d3d3d3"/>
<path id="11df10f0-b3f6-4b4d-8c1f-34f473e05ee1" data-name="path2107" d="M354.86,175.76a2.09,2.09,0,0,1-1.48-2.3,5.82,5.82,0,0,0-.58-2.52c-1.32-2.21-.28-10.4,1.67-13.2a12.15,12.15,0,0,0,1.52-3.05c.47-1.9,2.19-2.52,8.4-3a10.73,10.73,0,0,1,4.61.55,15.23,15.23,0,0,0,3.46.75,20.9,20.9,0,0,1,7.13,2c1.85.89,1.85.9.94,2a11.08,11.08,0,0,1-1.7,1.72,3.46,3.46,0,0,0-1.09,1.61,9.52,9.52,0,0,1-2.18,2.81A11.11,11.11,0,0,0,373,167c-.39,1.15-1,2.14-1.31,2.2s-2.22.21-4.21.32a19.43,19.43,0,0,0-4,.47c-.34.22-.87,2.78-1,5,0,.57-3,1.53-4.7,1.53A7.83,7.83,0,0,1,354.86,175.76Z" transform="translate(-22.38 -30.29)" style="fill:#d3d3d3"/>
<path id="5298d42e-0cdf-490b-aef2-9640a28b6454" data-name="path2103" d="M436,163.92c-2.6-2.69-6.34-7.83-6.05-8.31.48-.81,11.79-.71,14.17.12a23.89,23.89,0,0,1,9.1,6c1.1,1.32-.51,2-4.69,1.87a15.13,15.13,0,0,0-5.84.69C439.24,165.44,437.34,165.33,436,163.92Z" transform="translate(-22.38 -30.29)" style="fill:#d3d3d3"/>
<path id="01276087-c561-4ffd-a35c-e84d56b971f3" data-name="path2099" d="M380,147.05a13.53,13.53,0,0,0-4-.88c-2.87,0-3.71-.67-3.92-3.13a6.83,6.83,0,0,0-.75-2.86c-.88-1-1.22-4.37-.53-5.19a5.84,5.84,0,0,0,.72-2.72,3,3,0,0,0-1.43-3.23,6.2,6.2,0,0,1-1.73-2c-.17-.62-.78-.75-4.4-.93a44,44,0,0,1-5.11-.47c-1.28-.35-6.43-4.5-6.82-5.48a3.26,3.26,0,0,1,.23-2c.64-1.49,2-1.8,6.47-1.46,4.63.34,7.39,1.46,8.29,3.34.47,1,1.9,1.23,5.65,1,4.48-.23,6.42.46,6.44,2.29,0,.64.45,1,1.42,1.33,2.15.63,2.74,1.78,1.8,3.52-.78,1.44-.77,1.46,1.09,2.62,1,.64,1.87,1.52,1.87,2,0,.66.4.83,2.39,1,1.31.12,4.53.49,7.15.81l4.77.6,3.14-.95a28.59,28.59,0,0,1,3.74-1,12.52,12.52,0,0,0,3-1.27c2.33-1.24,2.48-1.26,6.92-1.19,5.25.07,6.86.37,10.72,2,4.65,1.91,7.13,4.57,5.34,5.71-.37.23-.33.73.11,1.48.56.94.52,1.23-.24,1.77a3.24,3.24,0,0,0-1.11,1.89c-.18,1.09-.55,1.36-2.91,2.11-4.66,1.47-11.45,1.46-12.5,0-.45-.65-.64-.69-1.36-.27a22.17,22.17,0,0,1-3.34,1.29c-2.17.68-3.63.81-10.93.92-9,.15-11.08-.12-11.78-1.53-.49-1-.89-.91-3.09.53a7.94,7.94,0,0,1-2.49,1.24A15.7,15.7,0,0,1,380,147.05Z" transform="translate(-22.38 -30.29)" style="fill:#d3d3d3"/>
<path id="5104607d-d376-421b-bf14-ed30be3961bc" data-name="path2097" d="M361,145.91A54,54,0,0,1,352,142c-1.37-.87-1.06-2,1.32-4.84,1.89-2.26,2.51-2.7,4.35-3.1a11.1,11.1,0,0,1,7.61,1.09c1.45.77,1.54,1,1.9,5,.37,4.15.37,4.17-1.08,5.09S363.42,146.29,361,145.91Z" transform="translate(-22.38 -30.29)" style="fill:#d3d3d3"/>
<path id="f62be26a-8b05-43fc-b04b-fea1855558d0" data-name="path2093" d="M339,139.36c-2.56-.75-5.24-2.54-5.24-3.49,0-.33.81-1.06,1.8-1.61l1.8-1-5.23.11c-5.91.12-6.79-.2-6.79-2.46,0-1.71-.71-2.36-3.92-3.62a12.47,12.47,0,0,1-2.81-1.32,5.31,5.31,0,0,1,1-1.23c.88-.95,1.13-1,3.5-.81,3,.25,4.53.68,4.53,1.31a8.46,8.46,0,0,0,2.51,2.13C332,128.61,333,129,334.23,129c1.46,0,1.66-.14,1.87-1.3.26-1.38-.53-2.1-3.62-3.27-.85-.32-1.54-.78-1.54-1s1.25-1.08,2.79-1.86c2.09-1,3.19-1.37,4.35-1.26.85.08,2.92.22,4.59.32a17.85,17.85,0,0,1,4.39.75l1.36.56-.31,6.62c-.19,3.93-.56,6.81-.92,7.08a1.69,1.69,0,0,0-.24,1.71c.57,1.92-.42,2.75-3.27,2.71A21.73,21.73,0,0,1,339,139.36Z" transform="translate(-22.38 -30.29)" style="fill:#d3d3d3"/>
<path id="fd7891d1-28f1-430d-a537-c25fac12b3c6" data-name="path2091" d="M298.17,137.09c-2.3-.91-3.84-.92-5.35-.05a2.17,2.17,0,0,1-1.57.27c-.87-.34,2.19-8.49,3.13-8.36.41.06.64-.58.64-1.82,0-2.39,2.63-10.84,3.71-11.92,1.66-1.65,6.07-.28,4.62,1.44a1.11,1.11,0,0,0-.06,1.46,4.42,4.42,0,0,1-.32,4.07,3.78,3.78,0,0,0-.43,2c0,1.22.25,1.45,1.4,1.55a18.94,18.94,0,0,0,3.83-.32c2.24-.4,2.59-.38,3.56.24,2.07,1.32,2.57,6.26.78,7.79-.47.4-1.37,1.25-2,1.88C307.5,138,302.34,138.71,298.17,137.09Z" transform="translate(-22.38 -30.29)" style="fill:#d3d3d3"/>
<path id="6c981627-9b94-45af-945b-ccad56e67d30" data-name="path2089" d="M313.52,137c-.4-.67-.3-1.13.41-1.85.53-.53,1-1,1-1a13.69,13.69,0,0,1,1.82-.27c1.68-.19,1.85-.1,2.95,1.47.7,1,1,1.8.64,2a12.76,12.76,0,0,1-3.4.46C314.29,137.91,314,137.85,313.52,137Z" transform="translate(-22.38 -30.29)" style="fill:#d3d3d3"/>
<path id="70526bdd-331a-49e1-a83c-e2c7cc5d450e" data-name="path2087" d="M422.69,125.83c-.19-.39-.22-.84-.07-1,.43-.44-.31-1-2.16-1.59-1.6-.53-1.73-.51-3,.34a3,3,0,0,1-2.54.65c-.68-.14-1.87-.33-2.64-.43a6.66,6.66,0,0,1-2.63-1.11c-1-.78-1.36-.85-2.1-.45a1.75,1.75,0,0,0-.88,1.4c0,1.23-1.79,2-4.05,1.63-.94-.13-4.81-.26-8.62-.29-6,0-7.1-.15-8.48-.8s-1.6-1-1.75-2.75a4.3,4.3,0,0,1,.71-3.08c1.35-1.65,4.66-3.59,6.14-3.59,2.41,0,2.75-.83.84-2-3.13-1.88-4.08-3.9-2.67-5.61.94-1.13,1.56-1.3,4.69-1.31,3.41,0,5.66,1,6.53,3a6,6,0,0,0,1.93,2.19c1.11.7,1.56.79,2.49.47,1.08-.37,1-.47-1.36-2a14.53,14.53,0,0,1-3.17-2.66c-.59-.91-.5-1.16.84-2.27l1.5-1.25h-3.84c-4.77,0-6.32-.58-6.32-2.36a5.35,5.35,0,0,1,1.16-2.69c.64-.79,1-1.53.86-1.64-.88-.56,1.63-2.23,5-3.33l3.71-1.21,3.72,1.24c4.74,1.58,4.45,1.52,4.48,1a2.78,2.78,0,0,1,.43-1.08c.23-.35.19-.64-.07-.66l-2.11-.13c-2.31-.13-6.13-2.84-7.38-5.25A13.43,13.43,0,0,0,399,83.76a9.26,9.26,0,0,1-1.87-1.85c0-.16-.49-.38-1.08-.5-1.59-.32-2.21-1.91-1.78-4.55.5-3.09,1.08-3.5,4.68-3.3s4.76.68,8.86,4.11a25.43,25.43,0,0,0,3.64,2.77c.62-.39-.89-2.57-2.7-3.88-2.79-2-2.67-3.08.44-4.09,1.24-.4,3.25-1.16,4.48-1.7a11.82,11.82,0,0,1,3.23-1c.62,0,1-.27,1-.72s1-1.37,2.29-2.15l2.28-1.43-1.44-1.09c-.8-.59-1.45-1.35-1.46-1.68s-.6.12-1.3,1c-3.47,4.34-6.15,5.87-10.38,5.91a51.92,51.92,0,0,0-5.83.52c-4.45.68-6.26.26-6.5-1.5a4.48,4.48,0,0,1,.68-2.58c.46-.7.69-1.28.51-1.28-.6,0-2.42,1.53-2.42,2,0,.28-.64.88-1.43,1.34a3.6,3.6,0,0,1-3,.56c-3.76-.68-6.48-2.68-5.1-3.74.6-.46.53-.55-.48-.55-.66,0-1.38,0-1.61,0A2.49,2.49,0,0,1,380.9,62c0-1,.45-1.47,2.23-2.5,2.41-1.4,2.73-1.83,1.4-1.83a4.61,4.61,0,0,1-2-.71,5.39,5.39,0,0,0-2.42-.72c-4.87,0-3.54-3.32,1.86-4.65a15.14,15.14,0,0,0,4-1.84,6.22,6.22,0,0,1,4.41-1.36c2.23,0,2.35,0,2-.86s0-1.06,1.34-1.76c.93-.49,1.68-1.21,1.68-1.59,0-.9,1.15-1.49,2.55-1.32.61.07,1.38.14,1.73.15a13.32,13.32,0,0,1,2.62.89c2.14.93,2.64.74,2.64-1a6.34,6.34,0,0,1,2-2.53,6.73,6.73,0,0,0,2-2.39c0-.35,1-1.31,2.23-2.12,1.79-1.2,2.51-1.46,3.7-1.31s1.57,0,2-.82c.6-1.09,2.95-1.82,5.09-1.58,4.25.47,5.58.4,8.09-.45,2.79-.94,7.12-1.3,8.84-.73.76.26,2,.18,4.35-.28s3.64-.53,4.55-.28a19.68,19.68,0,0,0,4.35.23c4.17-.17,5.2,0,6,1.25s2.28,1.74,4.86,2c2.17.23,3.1.87,3.72,2.56.78,2.15.63,4-.55,6.75a6,6,0,0,1-2.93,3.47,8.58,8.58,0,0,1-2.51,1c-1,0-3.88,2.24-5.5,4.29a16.35,16.35,0,0,0-1.45,2c0,.46,2.83-1.24,3.35-2a6.22,6.22,0,0,1,2.27-1.61,4.29,4.29,0,0,0,1.67-1c0-.4,2.69-.32,3.1.1a5.54,5.54,0,0,1,.35,2.35,3.94,3.94,0,0,1-1.36,3.31c-2.1,2-3.86,4.33-3.62,4.78.12.23-1,2.1-2.41,4.17s-2.89,4.16-3.2,4.65a25,25,0,0,0-2.15,7c-.22,1.88-2.87,3.49-5.46,3.33-1.58-.11-1.79,0-2.13,1.07a4.75,4.75,0,0,1-1.64,2c-1.18.8-5.8,2.07-6.31,1.75-.13-.09-.72.19-1.31.6-1.06.75-1.06.77.19,1.3a1.61,1.61,0,0,1,.33,3c-.74.52-.77.66-.14.69.44,0,1,.08,1.35.12s1,.11,1.6.14A7.16,7.16,0,0,1,441,90.89c2.06,1.41,2.33,4,.5,4.69-1.47.58-1.41.92.28,1.76.78.39,1.41,1,1.41,1.39s-.52.76-1.41.9c-1.13.18-1.4.45-1.4,1.37,0,1.6-2.5,3.32-5.06,3.48l-1.95.11.19,2.69c.17,2.41.06,2.77-1.13,3.57-3.45,2.32-3.46,2.33-2.39,3.37a8.39,8.39,0,0,0,2.71,1.51,9.08,9.08,0,0,1,2.37,1.12c.84.73.51,2.55-.79,4.42C431.82,124.83,423.77,128,422.69,125.83Z" transform="translate(-22.38 -30.29)" style="fill:#d3d3d3"/>
<path id="a4f2b4dc-b8be-4621-8334-e7b87ede8e3e" data-name="path2079" d="M317.74,112.48c-1.54-1-1.82-2.55-.78-4.44.76-1.39,1.77-1.43,3.24-.12,2.2,2,2.23,4.33.06,5.06C319.35,113.3,318.89,113.2,317.74,112.48Z" transform="translate(-22.38 -30.29)" style="fill:#d3d3d3"/><path id="e74a1ca1-d3c0-45c9-ae9d-a601efffe1be" data-name="path2077" d="M359.06,112c-4-1.32-4.42-2.6-1.41-4.3a9.82,9.82,0,0,1,8.41-.4c3.13,1.23,3.19,2.81.14,4.43A9.3,9.3,0,0,1,359.06,112Z" transform="translate(-22.38 -30.29)" style="fill:#d3d3d3"/>
<path id="337abe6f-8fda-4109-90f0-1a5458de2a02" data-name="path2073" d="M354.14,106c-1.86-.51-2.73-1.55-2.2-2.61.19-.39-.33-1.09-1.38-1.87-2.06-1.51-2.45-2.39-2.07-4.55a3.33,3.33,0,0,1,4-2.74,35.5,35.5,0,0,1,4.5,1.62,31.82,31.82,0,0,0,3.7,1.39c.9,0,1.68,2,1.68,4.28V104l-2.6,1.26C356.85,106.7,356.64,106.73,354.14,106Z" transform="translate(-22.38 -30.29)" style="fill:#d3d3d3"/>
<path id="32bc372d-82a8-4bfe-a72e-524a3e64ebfe" data-name="path2071" d="M342,105.37c-.68-.45-2.12-1.47-3.2-2.25-3.46-2.52-5.18-3.12-8.7-3-2.79.07-3.28,0-4.78-1-1.75-1.11-2.13-2.4-1.09-3.64a2.11,2.11,0,0,1,1.4-.69,4.46,4.46,0,0,0,1.91-.69c.94-.59,1-.88.51-2a5.79,5.79,0,0,0-2.49-2.37c-3.6-1.9-2.05-4.88,2.54-4.88,2.5,0,5.65,1.4,5.65,2.51,0,.66.81,1.16,2.1,1.28a10.65,10.65,0,0,1,5.23,3.24A14.22,14.22,0,0,0,343.28,94c1.93,1.31,2.18,2,1.36,3.47-1.11,2-1,2.5.89,3.87.92.67,1.68,1.47,1.68,1.78,0,1-1.23,2.29-2.61,2.69A2.41,2.41,0,0,1,342,105.37Z" transform="translate(-22.38 -30.29)" style="fill:#d3d3d3"/>
<path id="682c378d-1757-4d09-ab4e-4a8bf6bb0077" data-name="path2069" d="M374.2,101.51a11.14,11.14,0,0,1-2.62-2.17,6.64,6.64,0,0,0-1.74-1.63c-2-1.37-4.11-4.14-4.11-5.43s2.19-2.85,4.34-2.85c1.46,0,3.52-1,3.52-1.73,0-.32-2.73-1.25-3.65-1.25-.31,0-1.76.13-3.22.28-3.4.36-5.13.07-5.88-1-.44-.62-.39-1.07.2-1.79.48-.57.56-1,.22-1a4.37,4.37,0,0,1-1.7-.72c-1.26-.8-1.47-2.48-.51-4.23.55-1,.85-1.12,2.84-1.12s2.2-.06,1.83-.8a6.1,6.1,0,0,0-2.06-1.73c-1.42-.78-1.61-1.09-1.29-2,.45-1.31,1.58-2,3.6-2.13,3.5-.27,3.6-.53.91-2.34l-2-1.33,1.14-1.41a7,7,0,0,1,2.77-2c1.31-.43,1.68-.81,1.82-1.88.17-1.25.31-1.35,2.16-1.45,2.05-.11,5.32,1,6.2,2.07a20,20,0,0,1,2.76,4.21c0,.76,2.36,3.1,4.83,4.79,1.82,1.23,2.47,2,2.47,2.78s.68,1.57,2.8,3c2.46,1.65,2.81,2.07,2.81,3.39,0,1.6.21,1.78,5.59,4.62,2,1.06,2.27,1.38,2.27,2.73s-.47,1.93-3.36,4.36a23.53,23.53,0,0,1-4.77,3.3c-.93.32-1.42.79-1.42,1.37s-.93,1.66-2.07,2.61c-2.32,1.93-2.67,2-5,1.58-1.07-.2-1.25-.08-1.41.94s-.24,1.18-3.07,1.29S376.38,103,374.2,101.51Z" transform="translate(-22.38 -30.29)" style="fill:#d3d3d3"/>
<path id="8babc242-bb12-4d01-bc80-c5103ce187f8" data-name="path2065" d="M304.73,95.85c.17-.49.48-1.49.69-2.23s.62-1.34.9-1.34c.81,0-.07,3.33-1,3.93C304.51,96.69,304.45,96.65,304.73,95.85Z" transform="translate(-22.38 -30.29)" style="fill:#d3d3d3"/>
<path id="2705dadd-1576-485d-b0b2-e21118057ef1" data-name="path1873" d="M347.2,80.41c-1.91-1-3.24-2.42-2.94-3.21.47-1.23,1.27-1.69,2.92-1.69a3.9,3.9,0,0,1,3,1.46c1.8,1.75,1.85,2.24.38,3.18A3,3,0,0,1,347.2,80.41Z" transform="translate(-22.38 -30.29)" style="fill:#d3d3d3"/>
</g>
<circle cx="337.68" cy="218.87" r="21.96" style="fill:#31aa24"/>
<circle cx="271.07" cy="172.89" r="12.6" style="fill:#ffe31a"/>
<circle cx="298.44" cy="195.45" r="7.2" style="fill:#726e57"/>
<circle cx="334.67" cy="174.52" r="18" style="fill:#c42514"/>
<circle cx="306.13" cy="236.49" r="2.16" style="fill:#4fa5e0"/>
<circle cx="242.53" cy="138.65" r="1.8" style="fill:#e889c4"/>
<circle cx="262.6" cy="198.99" r="5.4" style="fill:#f99d0b"/>
<circle cx="314.28" cy="140.28" r="2.7" style="fill:#f70df7"/>
<text transform="translate(296.13 219.56)" style="font-size:12px;font-family:HoboStd, Hobo Std">Nunavut</text>
</g>
<g id="0263ba30-bf49-4b00-8d78-d690217d80c8" data-name="icon">
<g id="5df5ea27-5376-44a5-b5f8-ff8fb0d72bcb" data-name="house">
<circle cx="664.09" cy="26.99" r="10.8" style="fill:#c42514"/>
<text transform="translate(678.55 31.88)" style="font-size:12px;fill:#969696;font-family:HoboStd, Hobo Std">Housing</text>
</g>
<g id="b86f9429-1329-4a76-8f15-669f433f7af5" data-name="food">
<circle cx="664.09" cy="53.98" r="10.08" style="fill:#ffe31a"/>
<text transform="translate(678.55 57.18)" style="font-size:12px;fill:#969696;font-family:HoboStd, Hobo Std">Food &amp; Drink</text></g>
<g id="6d10fe41-b199-4dca-b660-320fe8f49271" data-name="food">
<circle cx="663.62" cy="81.42" r="9.36" style="fill:#31aa24"/>
<text transform="translate(678.92 87.15)" style="font-size:12px;fill:#969696;font-family:HoboStd, Hobo Std">
<tspan style="letter-spacing:-0.007975260416666666em">T</tspan>
<tspan x="7.42" y="0">ranspo</tspan><tspan x="44.42" y="0" style="letter-spacing:0.032958984375em">r</tspan>
<tspan x="49.93" y="0">t</tspan>
</text>
</g>
<g id="745aa053-0f8c-4154-9d51-8612fbfe6dcd" data-name="food">
<circle cx="663.84" cy="108.7" r="8.64" style="fill:#4fa5e0"/>
<text transform="translate(678.29 113.76)" style="font-size:12px;fill:#969696;font-family:HoboStd, Hobo Std">Education</text>
</g>
<g id="87b33caa-85d8-4fa1-a85f-0da5e96c7334" data-name="food"><circle cx="664.3" cy="136.81" r="7.92" style="fill:#726e57"/><text transform="translate(678.91 142.16)" style="font-size:12px;fill:#969696;font-family:HoboStd, Hobo Std">Se
<tspan x="14.05" y="0" style="letter-spacing:0.057942708333333336em">r</tspan>
<tspan x="19.86" y="0">vices</tspan>
</text>
</g>
<g id="87798009-ac5c-478e-9609-3626c247a0be" data-name="food"><circle cx="664.14" cy="161.41" r="7.2" style="fill:#f70df7"/>
<text transform="translate(678.6 165.64)" style="font-size:12px;fill:#969696;font-family:HoboStd, Hobo Std">Communications</text>
</g>
<g id="3856d441-65cc-45ab-a5b9-b4204efe2cab" data-name="food">
<circle cx="664.09" cy="183.99" r="6.48" style="fill:#e889c4"/>
<text transform="translate(677.71 189.99)" style="font-size:12px;fill:#969696;font-family:HoboStd, Hobo Std">Health</text>
</g>
<g id="ba2a951a-e0d2-4df0-a732-b99cea2cbe13" data-name="food"><circle cx="663.85" cy="204.58" r="5.76" style="fill:#f99d0b"/>
<text transform="translate(677.46 209.64)" style="font-size:12px;fill:#969696;font-family:HoboStd, Hobo Std">Clothes</text>
</g>
</g>
</svg>